{
classes = (
{
code = "";
name = "@KERN_RIGHT__empty_lu.0_st.1_cl.0";
},
{
code = "uni021A T Tcaron";
name = "@KERN_RIGHT_T";
},
{
code = "Y Ydieresis Yacute";
name = "@KERN_RIGHT_Y";
},
{
code = "A Aring Adieresis Aacute uni0202 Amacron Agrave Atilde Acircumflex uni0200 Aogonek Abreve";
name = "@KERN_LEFT_A";
},
{
code = "";
name = "@KERN_LEFT__empty_lu.0_st.1_cl.0";
},
{
code = "Y Ydieresis Yacute";
name = "@KERN_LEFT_Y";
},
{
code = "Oslash Omacron G C Ccaron Otilde Q Gcircumflex O uni020E uni020C Gcommaaccent Oacute Gdotaccent Gbreve Cdotaccent uni01F4 Odieresis Ohungarumlaut Ograve OE Cacute Ccircumflex Obreve Ccedilla Ocircumflex";
name = "@KERN_RIGHT_C";
},
{
code = "cdotaccent ograve ocircumflex edieresis uni020F obreve ccedilla edotaccent egrave eogonek otilde ccaron dcaron oslash cacute ecircumflex odieresis ohungarumlaut ebreve omacron uni020D emacron ccircumflex eacute ecaron c e d uni0207 uni0205 o q eth oe oacute";
name = "@KERN_RIGHT_c";
},
{
code = "ycircumflex y ydieresis yacute ygrave";
name = "@KERN_LEFT_y";
},
{
code = "Oslash Omacron D Otilde O Dcaron Q uni020E uni020C Eth Oacute Odieresis Ohungarumlaut Ograve Ocircumflex Obreve";
name = "@KERN_LEFT_D";
},
{
code = "racute r rcommaaccent uni0213 uni0211 rcaron";
name = "@KERN_LEFT_r";
},
{
code = "wgrave wcircumflex wdieresis w wacute";
name = "@KERN_RIGHT_w";
},
{
code = "a aring ae uni0203 aacute uni0201 amacron agrave atilde acircumflex adieresis aogonek abreve";
name = "@KERN_RIGHT_a";
},
{
code = "A Aring Adieresis uni0202 uni0200 Amacron Aacute Agrave Atilde Acircumflex Abreve Aogonek";
name = "@KERN_RIGHT_A";
}
);
copyright = "Copyright (c) 2011-12 by vernon adams. All rights reserved.";
customParameters = (
{
name = openTypeHeadFlags;
value = (
    0,
    1,
    3
);
},
{
name = openTypeHeadLowestRecPPEM;
value = 8;
},
{
name = openTypeHheaCaretOffset;
value = 0;
},
{
name = openTypeHheaCaretSlopeRise;
value = 1;
},
{
name = openTypeHheaCaretSlopeRun;
value = 0;
},
{

glyphs = (
{
glyphname = A;
lastChange = "2012-12-22 11:46:55 +0000";
layers = (
{
anchors = (
{
name = ogonek;
position = "{824, 10}";
},
{
name = top;
position = "{445, 1760}";
}
);
layerId = "7DA9E391-A28A-4B33-B824-B8724EAC872C";
name = "Regular Condensed";
paths = (
{
closed = 1;
nodes = (
"352 1760 LINE",
"74 0 LINE",
"234 0 LINE",
"447 1447 LINE",
"449 1447 LINE",
"681 0 LINE",
"842 0 LINE",
"536 1760 LINE"
);
},
{
closed = 1;
nodes = (
"256 488 LINE",
"256 350 LINE",
"657 350 LINE",
"657 488 LINE"
);
}
);
width = 916;
}
);
unicode = 0041;
},
{
glyphname = AE;
lastChange = "2012-12-22 11:46:55 +0000";
layers = (
{
anchors = (
{
name = top;
position = "{685, 0}";
}
);
layerId = "7DA9E391-A28A-4B33-B824-B8724EAC872C";
name = "Regular Condensed";
paths = (
{
closed = 1;
nodes = (
"452 1760 LINE",
"74 0 LINE",
"234 0 LINE",
"306 350 LINE",
"590 350 LINE",
"590 0 LINE",
"1075 0 LINE",
"1075 136 LINE",
"758 136 LINE",
"758 828 LINE",
"1057 828 LINE",
"1057 966 LINE",
"758 966 LINE",
"758 1625 LINE",
"1075 1625 LINE",
"1075 1760 LINE"
);
},
{
closed = 1;
nodes = (
"590 488 LINE",
"335 488 LINE",
"569 1626 LINE",
"571 1626 LINE",
"590 1627 LINE"
);
}
);
width = 1186;
}
);
unicode = 00C6;
},
{
glyphname = B;
lastChange = "2012-12-22 11:46:55 +0000";
layers = (
{
anchors = (
{
name = top;
position = "{451, 1760}";
}
);
layerId = "7DA9E391-A28A-4B33-B824-B8724EAC872C";
name = "Regular Condensed";
paths = (
{
closed = 1;
nodes = (
"172 1760 LINE",
"172 0 LINE",
"488 0 LINE SMOOTH",
"737 0 OFFCURVE",
"804 151 OFFCURVE",
"808 489 CURVE SMOOTH",
"808 522 LINE SMOOTH",
"808 718 OFFCURVE",
"780 895 OFFCURVE",
"663 949 CURVE",
"763 1010 OFFCURVE",
"783 1134 OFFCURVE",
"783 1337 CURVE SMOOTH",
"783 1365 LINE SMOOTH",
"780 1647 OFFCURVE",
"722 1760 OFFCURVE",
"449 1760 CURVE SMOOTH"
);
},
{
closed = 1;
nodes = (
"616 878 OFFCURVE",
"640 780 OFFCURVE",
"640 533 CURVE SMOOTH",
"640 524 LINE SMOOTH",
"640 223 OFFCURVE",
"611 141 OFFCURVE",
"488 141 CURVE SMOOTH",
"340 141 LINE",
"340 878 LINE",
"494 878 LINE SMOOTH"
);
},
{
closed = 1;
nodes = (
"569 1616 OFFCURVE",
"613 1585 OFFCURVE",
"615 1350 CURVE SMOOTH",
"615 1337 LINE SMOOTH",
"615 1036 OFFCURVE",
"592 1011 OFFCURVE",
"469 1011 CURVE SMOOTH",
"340 1011 LINE",
"340 1616 LINE",
"449 1616 LINE SMOOTH"
);
}
);
width = 938;
}
);
unicode = 0042;
},
{
glyphname = C;
lastChange = "2012-12-22 11:46:55 +0000";
layers = (
{
anchors = (
{
name = bottom;
position = "{448, 0}";
},
{
name = top;
position = "{448, 1760}";
}
);
layerId = "7DA9E391-A28A-4B33-B824-B8724EAC872C";
name = "Regular Condensed";
paths = (
{
closed = 1;
nodes = (
"175 1781 OFFCURVE",
"128 1554 OFFCURVE",
"128 1251 CURVE SMOOTH",
"128 540 LINE SMOOTH",
"128 177 OFFCURVE",
"193 -21 OFFCURVE",
"451 -21 CURVE SMOOTH",
"709 -21 OFFCURVE",
"766 177 OFFCURVE",
"766 540 CURVE SMOOTH",
"766 698 LINE",
"598 698 LINE",
"598 539 LINE SMOOTH",
"598 238 OFFCURVE",
"574 120 OFFCURVE",
"451 120 CURVE SMOOTH",
"322 120 OFFCURVE",
"296 237 OFFCURVE",
"296 539 CURVE SMOOTH",
"296 1264 LINE SMOOTH",
"296 1509 OFFCURVE",
"329 1636 OFFCURVE",
"457 1636 CURVE SMOOTH",
"579 1636 OFFCURVE",
"598 1510 OFFCURVE",
"598 1263 CURVE SMOOTH",
"598 1084 LINE",
"766 1084 LINE",
"766 1251 LINE SMOOTH",
"766 1554 OFFCURVE",
"739 1781 OFFCURVE",
"457 1781 CURVE SMOOTH"
);
}
);
width = 896;
}
);
unicode = 0043;
},
{
glyphname = D;
lastChange = "2012-12-22 11:46:55 +0000";
layers = (
{
anchors = (
{
name = center;
position = "{263, 906}";
},
{
name = top;
position = "{445, 1760}";
}
);
layerId = "7DA9E391-A28A-4B33-B824-B8724EAC872C";
name = "Regular Condensed";
paths = (
{
closed = 1;
nodes = (
"150 1760 LINE",
"150 0 LINE",
"435 0 LINE SMOOTH",
"693 0 OFFCURVE",
"787 143 OFFCURVE",
"787 506 CURVE SMOOTH",
"786 1266 LINE SMOOTH",
"786 1569 OFFCURVE",
"723 1760 OFFCURVE",
"441 1760 CURVE SMOOTH"
);
},
{
closed = 1;
nodes = (
"563 1623 OFFCURVE",
"618 1525 OFFCURVE",
"618 1278 CURVE SMOOTH",
"619 505 LINE SMOOTH",
"619 204 OFFCURVE",
"558 141 OFFCURVE",
"435 141 CURVE SMOOTH",
"318 141 LINE",
"318 1623 LINE",
"441 1623 LINE SMOOTH"
);
}
);
width = 913;
}
);
unicode = 0044;
},
{
glyphname = E;
lastChange = "2012-12-22 11:46:55 +0000";
layers = (
{
anchors = (
{
name = bottom;
position = "{442, 0}";
},
{
name = ogonek;
position = "{669, 10}";
},
{
name = top;
position = "{399, 1760}";
}
);
layerId = "7DA9E391-A28A-4B33-B824-B8724EAC872C";
name = "Regular Condensed";
paths = (
{
closed = 1;
nodes = (
"150 1760 LINE",
"150 0 LINE",
"635 0 LINE",
"635 136 LINE",
"318 136 LINE",
"318 828 LINE",
"617 828 LINE",
"617 966 LINE",
"318 966 LINE",
"318 1625 LINE",
"635 1625 LINE",
"635 1760 LINE"
);
}
);
width = 746;
}
);
unicode = 0045;
},
{
glyphname = F;
lastChange = "2012-12-22 11:46:55 +0000";
layers = (
{
layerId = "7DA9E391-A28A-4B33-B824-B8724EAC872C";
name = "Regular Condensed";
paths = (
{
closed = 1;
nodes = (
"150 1760 LINE",
"150 0 LINE",
"318 0 LINE",
"318 876 LINE",
"617 876 LINE",
"617 1014 LINE",
"318 1014 LINE",
"318 1625 LINE",
"635 1625 LINE",
"635 1760 LINE"
);
}
);
width = 727;
}
);
unicode = 0046;
},
{
glyphname = G;
lastChange = "2012-12-22 11:46:55 +0000";
layers = (
{
anchors = (
{
name = bottom;
position = "{461, 0}";
},
{
name = top;
position = "{461, 1760}";
}
);
layerId = "7DA9E391-A28A-4B33-B824-B8724EAC872C";
name = "Regular Condensed";
paths = (
{
closed = 1;
nodes = (
"178 1781 OFFCURVE",
"128 1554 OFFCURVE",
"128 1251 CURVE SMOOTH",
"128 529 LINE SMOOTH",
"128 139 OFFCURVE",
"223 -16 OFFCURVE",
"422 -16 CURVE SMOOTH",
"533 -16 OFFCURVE",
"600 28 OFFCURVE",
"644 113 CURVE",
"664 0 LINE",
"766 0 LINE",
"766 901 LINE",
"456 901 LINE",
"456 763 LINE",
"604 763 LINE",
"604 539 LINE SMOOTH",
"604 238 OFFCURVE",
"574 120 OFFCURVE",
"451 120 CURVE SMOOTH",
"322 120 OFFCURVE",
"296 237 OFFCURVE",
"296 539 CURVE SMOOTH",
"296 1264 LINE SMOOTH",
"296 1540 OFFCURVE",
"335 1636 OFFCURVE",
"457 1636 CURVE SMOOTH",
"574 1636 OFFCURVE",
"598 1544 OFFCURVE",
"598 1365 CURVE SMOOTH",
"598 1107 LINE",
"766 1107 LINE",
"766 1251 LINE SMOOTH",
"766 1554 OFFCURVE",
"742 1781 OFFCURVE",
"460 1781 CURVE SMOOTH"
);
}
);
width = 922.889;
}
);
unicode = 0047;
},
{
glyphname = H;
lastChange = "2012-12-22 11:46:55 +0000";
layers = (
{
layerId = "7DA9E391-A28A-4B33-B824-B8724EAC872C";
name = "Regular Condensed";
paths = (
{
closed = 1;
nodes = (
"629 1760 LINE",
"629 1006 LINE",
"320 1006 LINE",
"320 1760 LINE",
"152 1760 LINE",
"152 0 LINE",
"320 0 LINE",
"320 875 LINE",
"629 875 LINE",
"629 0 LINE",
"797 0 LINE",
"797 1760 LINE"
);
}
);
width = 949;
}
);
unicode = 0048;
},
{
glyphname = I;
lastChange = "2012-12-22 11:46:55 +0000";
layers = (
{
anchors = (
{
name = ogonek;
position = "{411, 10}";
},
{
name = top;
position = "{256, 1760}";
}
);
layerId = "7DA9E391-A28A-4B33-B824-B8724EAC872C";
name = "Regular Condensed";
paths = (
{
closed = 1;
nodes = (
"172 1760 LINE",
"172 0 LINE",
"340 0 LINE",
"340 1760 LINE"
);
}
);
width = 512;
}
);
unicode = 0049;
},
{
glyphname = J;
lastChange = "2012-12-22 11:46:55 +0000";
layers = (
{
anchors = (
{
name = top;
position = "{449, 1760}";
}
);
layerId = "7DA9E391-A28A-4B33-B824-B8724EAC872C";
name = "Regular Condensed";
paths = (
{
closed = 1;
nodes = (
"502 1760 LINE",
"502 418 LINE SMOOTH",
"502 243 OFFCURVE",
"505 120 OFFCURVE",
"380 120 CURVE SMOOTH",
"257 120 OFFCURVE",
"258 250 OFFCURVE",
"258 402 CURVE SMOOTH",
"258 566 LINE",
"90 566 LINE",
"90 389 LINE SMOOTH",
"90 113 OFFCURVE",
"167 -21 OFFCURVE",
"386 -21 CURVE SMOOTH",
"586 -21 OFFCURVE",
"670 122 OFFCURVE",
"670 422 CURVE SMOOTH",
"670 1760 LINE"
);
}
);
width = 838;
}
);
unicode = 004A;
},
{
glyphname = K;
lastChange = "2012-12-22 11:46:55 +0000";
layers = (
{
anchors = (
{
name = bottom;
position = "{431, 0}";
},
{
name = top;
position = "{431, 0}";
}
);
layerId = "7DA9E391-A28A-4B33-B824-B8724EAC872C";
name = "Regular Condensed";
paths = (
{
closed = 1;
nodes = (
"661 1760 LINE",
"320 902 LINE",
"320 1760 LINE",
"152 1760 LINE",
"152 0 LINE",
"322 0 LINE",
"322 854 LINE",
"675 0 LINE",
"850 0 LINE",
"476 891 LINE",
"827 1760 LINE"
);
}
);
width = 882;
}
);
unicode = 004B;
},
{
glyphname = L;
lastChange = "2012-12-22 11:46:55 +0000";
layers = (
{
anchors = (
{
name = bottom;
position = "{400, 0}";
},
{
name = center;
position = "{553, 902}";
},
{
name = top;
position = "{350, 1760}";
}
);
layerId = "7DA9E391-A28A-4B33-B824-B8724EAC872C";
name = "Regular Condensed";
paths = (
{
closed = 1;
nodes = (
"152 1760 LINE",
"152 0 LINE",
"637 0 LINE",
"637 136 LINE",
"320 136 LINE",
"320 1760 LINE"
);
}
);
width = 719;
}
);
unicode = 004C;
},
{
glyphname = Lslash;
lastChange = "2012-12-22 11:47:01 +0000";
layers = (
{
components = (
{
name = L;
transform = "{1, 0, 0, 1, 0, 0}";
}
);
layerId = "7DA9E391-A28A-4B33-B824-B8724EAC872C";
name = "Regular Condensed";
paths = (
{
closed = 1;
nodes = (
"-1 916 LINE",
"-1 784 LINE",
"516 1003 LINE",
"516 1135 LINE"
);
}
);
width = 719;
}
);
unicode = 0141;
},
{
glyphname = M;
lastChange = "2012-12-22 11:46:55 +0000";
layers = (
{
anchors = (
{
name = top;
position = "{616, 1760}";
}
);
layerId = "7DA9E391-A28A-4B33-B824-B8724EAC872C";
name = "Regular Condensed";
paths = (
{
closed = 1;
nodes = (
"857 1760 LINE",
"615 212 LINE",
"363 1760 LINE",
"152 1760 LINE",
"152 0 LINE",
"301 0 LINE",
"301 738 LINE",
"280 1430 LINE",
"530 0 LINE",
"700 0 LINE",
"940 1430 LINE",
"919 738 LINE",
"919 0 LINE",
"1068 0 LINE",
"1068 1760 LINE"
);
}
);
width = 1220;
}
);
unicode = 004D;
},
{
glyphname = N;
lastChange = "2012-12-22 11:46:55 +0000";
layers = (
{
anchors = (
{
name = bottom;
position = "{490, 0}";
},
{
name = top;
position = "{490, 1760}";
}
);
layerId = "7DA9E391-A28A-4B33-B824-B8724EAC872C";
name = "Regular Condensed";
paths = (
{
closed = 1;
nodes = (
"682 1760 LINE",
"682 1000 LINE",
"704 473 LINE",
"273 1760 LINE",
"152 1760 LINE",
"152 0 LINE",
"308 0 LINE",
"308 848 LINE",
"297 1280 LINE",
"700 0 LINE",
"828 0 LINE",
"828 1760 LINE"
);
}
);
width = 980;
}
);
unicode = 004E;
},
{
glyphname = O;
lastChange = "2012-12-22 11:46:55 +0000";
layers = (
{
anchors = (
{
name = top;
position = "{450, 1760}";
}
);
layerId = "7DA9E391-A28A-4B33-B824-B8724EAC872C";
name = "Regular Condensed";
paths = (
{
closed = 1;
nodes = (
"176 1782 OFFCURVE",
"128 1576 OFFCURVE",
"128 1273 CURVE SMOOTH",
"128 515 LINE SMOOTH",
"128 152 OFFCURVE",
"194 -20 OFFCURVE",
"452 -20 CURVE SMOOTH",
"710 -20 OFFCURVE",
"772 152 OFFCURVE",
"772 515 CURVE SMOOTH",
"772 1273 LINE SMOOTH",
"772 1576 OFFCURVE",
"740 1782 OFFCURVE",
"458 1782 CURVE SMOOTH"
);
},
{
closed = 1;
nodes = (
"580 1638 OFFCURVE",
"604 1532 OFFCURVE",
"604 1285 CURVE SMOOTH",
"604 514 LINE SMOOTH",
"604 213 OFFCURVE",
"575 124 OFFCURVE",
"452 124 CURVE SMOOTH",
"323 124 OFFCURVE",
"296 212 OFFCURVE",
"296 514 CURVE SMOOTH",
"296 1286 LINE SMOOTH",
"296 1531 OFFCURVE",
"330 1638 OFFCURVE",
"458 1638 CURVE SMOOTH"
);
}
);
width = 900;
}
);
unicode = 004F;
},
{
glyphname = Oslash;
lastChange = "2012-12-22 11:47:01 +0000";
layers = (
{
anchors = (
{
name = top;
position = "{548, 0}";
}
);
components = (
{
name = O;
transform = "{1, 0, 0, 1, 0, 0}";
}
);
layerId = "7DA9E391-A28A-4B33-B824-B8724EAC872C";
name = "Regular Condensed";
paths = (
{
closed = 1;
nodes = (
"63 -166 LINE",
"162 -206 LINE",
"898 1870 LINE",
"791 1906 LINE"
);
}
);
width = 900;
}
);
unicode = 00D8;
},
{
glyphname = OE;
lastChange = "2012-12-22 11:46:55 +0000";
layers = (
{
anchors = (
{
name = top;
position = "{656, 0}";
}
);
layerId = "7DA9E391-A28A-4B33-B824-B8724EAC872C";
name = "Regular Condensed";
paths = (
{
closed = 1;
nodes = (
"458 1760 LINE SMOOTH",
"176 1760 OFFCURVE",
"128 1576 OFFCURVE",
"128 1273 CURVE SMOOTH",
"128 515 LINE SMOOTH",
"128 152 OFFCURVE",
"194 0 OFFCURVE",
"452 0 CURVE SMOOTH",
"1089 0 LINE",
"1089 136 LINE",
"772 136 LINE",
"772 828 LINE",
"1071 828 LINE",
"1071 966 LINE",
"772 966 LINE",
"772 1625 LINE",
"1089 1625 LINE",
"1089 1760 LINE"
);
},
{
closed = 1;
nodes = (
"604 143 LINE",
"452 143 LINE SMOOTH",
"323 144 OFFCURVE",
"296 212 OFFCURVE",
"296 514 CURVE SMOOTH",
"296 1286 LINE SMOOTH",
"296 1531 OFFCURVE",
"330 1616 OFFCURVE",
"458 1616 CURVE SMOOTH",
"604 1616 LINE"
);
}
);
width = 1200;
}
);
unicode = 0152;
},
{
glyphname = P;
lastChange = "2012-12-22 11:46:55 +0000";
layers = (
{
anchors = (
{
name = top;
position = "{449, 1760}";
}
);
layerId = "7DA9E391-A28A-4B33-B824-B8724EAC872C";
name = "Regular Condensed";
paths = (
{
closed = 1;
nodes = (
"152 1760 LINE",
"152 0 LINE",
"320 0 LINE",
"320 690 LINE",
"468 690 LINE SMOOTH",
"726 690 OFFCURVE",
"788 867 OFFCURVE",
"788 1230 CURVE SMOOTH",
"788 1251 LINE SMOOTH",
"788 1554 OFFCURVE",
"756 1760 OFFCURVE",
"474 1760 CURVE SMOOTH"
);
},
{
closed = 1;
nodes = (
"596 1623 OFFCURVE",
"620 1510 OFFCURVE",
"620 1263 CURVE SMOOTH",
"620 1229 LINE SMOOTH",
"620 928 OFFCURVE",
"591 831 OFFCURVE",
"468 831 CURVE SMOOTH",
"320 831 LINE",
"320 1623 LINE",
"474 1623 LINE SMOOTH"
);
}
);
width = 873;
}
);
unicode = 0050;
},
{
glyphname = Thorn;
lastChange = "2012-12-22 11:46:55 +0000";
layers = (
{
layerId = "7DA9E391-A28A-4B33-B824-B8724EAC872C";
name = "Regular Condensed";
paths = (
{
closed = 1;
nodes = (
"172 1760 LINE",
"172 0 LINE",
"340 0 LINE",
"340 430 LINE",
"488 430 LINE SMOOTH",
"746 430 OFFCURVE",
"808 607 OFFCURVE",
"808 970 CURVE SMOOTH",
"808 991 LINE SMOOTH",
"808 1294 OFFCURVE",
"776 1500 OFFCURVE",
"494 1500 CURVE SMOOTH",
"340 1500 LINE",
"340 1760 LINE"
);
},
{
closed = 1;
nodes = (
"616 1363 OFFCURVE",
"640 1250 OFFCURVE",
"640 1003 CURVE SMOOTH",
"640 969 LINE SMOOTH",
"640 668 OFFCURVE",
"611 571 OFFCURVE",
"488 571 CURVE SMOOTH",
"340 571 LINE",
"340 1363 LINE",
"494 1363 LINE SMOOTH"
);
}
);
width = 893;
}
);
unicode = 00DE;
},
{
glyphname = Q;
lastChange = "2012-12-22 11:47:01 +0000";
layers = (
{
components = (
{
name = O;
transform = "{1, 0, 0, 1, 0, 0}";
}
);
layerId = "7DA9E391-A28A-4B33-B824-B8724EAC872C";
name = "Regular Condensed";
paths = (
{
closed = 1;
nodes = (
"416 -15 LINE",
"637 -254 LINE",
"719 -176 LINE",
"535 37 LINE"
);
}
);
width = 900;
}
);
unicode = 0051;
},
{
glyphname = R;
lastChange = "2012-12-22 11:46:55 +0000";
layers = (
{
anchors = (
{
name = bottom;
position = "{466, 0}";
},
{
name = top;
position = "{466, 1760}";
}
);
layerId = "7DA9E391-A28A-4B33-B824-B8724EAC872C";
name = "Regular Condensed";
paths = (
{
closed = 1;
nodes = (
"152 1760 LINE",
"152 0 LINE",
"320 0 LINE",
"320 862 LINE",
"467 853 LINE SMOOTH",
"619 853 OFFCURVE",
"620 796 OFFCURVE",
"620 569 CURVE SMOOTH",
"620 137 OFFCURVE",
"621 37 OFFCURVE",
"640 0 CURVE",
"808 0 LINE",
"788 53 OFFCURVE",
"788 137 OFFCURVE",
"788 210 CURVE SMOOTH",
"788 768 OFFCURVE",
"760 904 OFFCURVE",
"626 926 CURVE",
"750 961 OFFCURVE",
"788 1098 OFFCURVE",
"788 1321 CURVE SMOOTH",
"788 1624 OFFCURVE",
"756 1760 OFFCURVE",
"474 1760 CURVE SMOOTH"
);
},
{
closed = 1;
nodes = (
"596 1623 OFFCURVE",
"620 1580 OFFCURVE",
"620 1333 CURVE SMOOTH",
"620 1320 LINE SMOOTH",
"620 1019 OFFCURVE",
"591 979 OFFCURVE",
"468 979 CURVE SMOOTH",
"320 979 LINE",
"320 1623 LINE",
"474 1623 LINE SMOOTH"
);
}
);
width = 952;
}
);
unicode = 0052;
},
{
glyphname = S;
lastChange = "2012-12-22 11:46:55 +0000";
layers = (
{
anchors = (
{
name = bottom;
position = "{434, 0}";
},
{
name = top;
position = "{434, 1760}";
}
);
layerId = "7DA9E391-A28A-4B33-B824-B8724EAC872C";
name = "Regular Condensed";
paths = (
{
closed = 1;
nodes = (
"171 1782 OFFCURVE",
"119 1604 OFFCURVE",
"119 1347 CURVE SMOOTH",
"119 1146 OFFCURVE",
"242 1022 OFFCURVE",
"338 928 CURVE SMOOTH",
"444 825 LINE SMOOTH",
"543 728 OFFCURVE",
"601 622 OFFCURVE",
"601 449 CURVE SMOOTH",
"601 215 OFFCURVE",
"592 124 OFFCURVE",
"455 124 CURVE SMOOTH",
"323 124 OFFCURVE",
"299 234 OFFCURVE",
"299 518 CURVE SMOOTH",
"299 697 LINE",
"131 697 LINE",
"131 518 LINE SMOOTH",
"131 215 OFFCURVE",
"166 -20 OFFCURVE",
"448 -20 CURVE SMOOTH",
"715 -20 OFFCURVE",
"770 164 OFFCURVE",
"770 440 CURVE SMOOTH",
"770 667 OFFCURVE",
"674 827 OFFCURVE",
"556 949 CURVE SMOOTH",
"452 1056 LINE SMOOTH",
"342 1170 OFFCURVE",
"284 1212 OFFCURVE",
"284 1372 CURVE SMOOTH",
"284 1556 OFFCURVE",
"328 1638 OFFCURVE",
"440 1638 CURVE SMOOTH",
"562 1638 OFFCURVE",
"574 1510 OFFCURVE",
"574 1263 CURVE SMOOTH",
"574 1150 LINE",
"742 1150 LINE",
"742 1251 LINE SMOOTH",
"742 1554 OFFCURVE",
"727 1782 OFFCURVE",
"439 1782 CURVE SMOOTH"
);
}
);
width = 867;
}
);
unicode = 0053;
},
{
glyphname = T;
lastChange = "2012-12-22 11:46:55 +0000";
layers = (
{
anchors = (
{
name = bottom;
position = "{295, 0}";
},
{
name = center;
position = "{295, 875}";
},
{
name = top;
position = "{295, 1760}";
}
);
layerId = "7DA9E391-A28A-4B33-B824-B8724EAC872C";
name = "Regular Condensed";
paths = (
{
closed = 1;
nodes = (
"32 1760 LINE",
"32 1625 LINE",
"219 1625 LINE",
"219 0 LINE",
"387 0 LINE",
"387 1625 LINE",
"557 1625 LINE",
"557 1760 LINE"
);
}
);
width = 589;
}
);
unicode = 0054;
},
{
glyphname = U;
lastChange = "2012-12-22 11:46:55 +0000";
layers = (
{
anchors = (
{
name = ogonek;
position = "{642, 10}";
},
{
name = top;
position = "{474, 1760}";
}
);
layerId = "7DA9E391-A28A-4B33-B824-B8724EAC872C";
name = "Regular Condensed";
paths = (
{
closed = 1;
nodes = (
"628 1760 LINE",
"628 456 LINE SMOOTH",
"628 240 OFFCURVE",
"627 119 OFFCURVE",
"476 119 CURVE SMOOTH",
"326 119 OFFCURVE",
"320 241 OFFCURVE",
"320 457 CURVE SMOOTH",
"320 1760 LINE",
"152 1760 LINE",
"152 452 LINE SMOOTH",
"152 132 OFFCURVE",
"223 -21 OFFCURVE",
"476 -21 CURVE SMOOTH",
"729 -21 OFFCURVE",
"796 132 OFFCURVE",
"796 452 CURVE SMOOTH",
"796 1760 LINE"
);
}
);
width = 948;
}
);
unicode = 0055;
},
{
glyphname = V;
lastChange = "2012-12-22 11:46:55 +0000";
layers = (
{
layerId = "7DA9E391-A28A-4B33-B824-B8724EAC872C";
name = "Regular Condensed";
paths = (
{
closed = 1;
nodes = (
"670 1760 LINE",
"565 1046 LINE",
"461 332 LINE",
"459 332 LINE",
"342 1046 LINE",
"223 1760 LINE",
"62 1760 LINE",
"368 0 LINE",
"552 0 LINE",
"830 1760 LINE"
);
}
);
width = 892;
}
);
unicode = 0056;
},
{
glyphname = W;
lastChange = "2012-12-22 11:46:55 +0000";
layers = (
{
anchors = (
{
name = top;
position = "{694, 1760}";
}
);
layerId = "7DA9E391-A28A-4B33-B824-B8724EAC872C";
name = "Regular Condensed";
paths = (
{
closed = 1;
nodes = (
"1132 1760 LINE",
"996 352 LINE",
"766 1760 LINE",
"627 1760 LINE",
"404 352 LINE",
"241 1760 LINE",
"80 1760 LINE",
"323 0 LINE",
"481 0 LINE",
"704 1379 LINE",
"912 0 LINE",
"1078 0 LINE",
"1289 1760 LINE"
);
}
);
width = 1369;
}
);
unicode = 0057;
},
{
glyphname = X;
lastChange = "2012-12-22 11:46:55 +0000";
layers = (
{
layerId = "7DA9E391-A28A-4B33-B824-B8724EAC872C";
name = "Regular Condensed";
paths = (
{
closed = 1;
nodes = (
"560 1760 LINE",
"361 959 LINE",
"316 959 LINE",
"68 0 LINE",
"213 0 LINE",
"413 788 LINE",
"460 794 LINE",
"705 1760 LINE"
);
},
{
closed = 1;
nodes = (
"80 1760 LINE",
"557 0 LINE",
"706 0 LINE",
"232 1760 LINE"
);
}
);
width = 774;
}
);
unicode = 0058;
},
{
glyphname = Y;
lastChange = "2012-12-22 11:46:55 +0000";
layers = (
{
anchors = (
{
name = top;
position = "{421, 1760}";
}
);
layerId = "7DA9E391-A28A-4B33-B824-B8724EAC872C";
name = "Regular Condensed";
paths = (
{
closed = 1;
nodes = (
"628 1760 LINE",
"430 1001 LINE",
"427 1001 LINE",
"197 1760 LINE",
"30 1760 LINE",
"344 761 LINE",
"344 0 LINE",
"512 0 LINE",
"512 762 LINE",
"798 1760 LINE"
);
}
);
width = 828;
}
);
unicode = 0059;
},
{
glyphname = Z;
lastChange = "2012-12-22 11:46:55 +0000";
layers = (
{
anchors = (
{
name = top;
position = "{418, 1760}";
}
);
layerId = "7DA9E391-A28A-4B33-B824-B8724EAC872C";
name = "Regular Condensed";
paths = (
{
closed = 1;
nodes = (
"159 1760 LINE",
"159 1625 LINE",
"487 1625 LINE",
"126 143 LINE",
"126 0 LINE",
"652 0 LINE",
"652 136 LINE",
"297 136 LINE",
"660 1639 LINE",
"660 1760 LINE"
);
}
);
width = 736;
}
);
unicode = 005A;
},
{
glyphname = a;
lastChange = "2012-12-22 11:46:55 +0000";
layers = (
{
anchors = (
{
name = ogonek;
position = "{802, 10}";
},
{
name = top;
position = "{464, 1500}";
}
);
layerId = "7DA9E391-A28A-4B33-B824-B8724EAC872C";
name = "Regular Condensed";
paths = (
{
closed = 1;
nodes = (
"177 1518 OFFCURVE",
"156 1302 OFFCURVE",
"156 1056 CURVE SMOOTH",
"156 1015 LINE",
"324 1015 LINE",
"324 1057 LINE SMOOTH",
"324 1284 OFFCURVE",
"338 1374 OFFCURVE",
"457 1374 CURVE SMOOTH",
"578 1374 OFFCURVE",
"582 1281 OFFCURVE",
"582 1064 CURVE SMOOTH",
"582 226 LINE",
"561 184 OFFCURVE",
"496 126 OFFCURVE",
"420 126 CURVE SMOOTH",
"328 126 OFFCURVE",
"306 200 OFFCURVE",
"306 390 CURVE SMOOTH",
"306 516 LINE SMOOTH",
"306 707 OFFCURVE",
"350 730 OFFCURVE",
"604 844 CURVE",
"604 967 LINE",
"342 855 OFFCURVE",
"138 793 OFFCURVE",
"138 556 CURVE SMOOTH",
"138 380 LINE SMOOTH",
"138 130 OFFCURVE",
"216 -12 OFFCURVE",
"383 -12 CURVE SMOOTH",
"504 -12 OFFCURVE",
"568 73 OFFCURVE",
"582 118 CURVE",
"582 0 LINE",
"750 0 LINE",
"750 991 LINE SMOOTH",
"750 1332 OFFCURVE",
"737 1518 OFFCURVE",
"458 1518 CURVE SMOOTH"
);
}
);
width = 891;
}
);
unicode = 0061;
},
{
glyphname = ae;
lastChange = "2012-12-22 11:47:06 +0000";
layers = (
{
anchors = (
{
name = top;
position = "{779, 460}";
}
);
layerId = "7DA9E391-A28A-4B33-B824-B8724EAC872C";
name = "Regular Condensed";
paths = (
{
closed = 1;
nodes = (
"793 1518 OFFCURVE",
"724 1468 OFFCURVE",
"677 1396 CURVE",
"634 1471 OFFCURVE",
"566 1518 OFFCURVE",
"458 1518 CURVE SMOOTH",
"177 1518 OFFCURVE",
"156 1302 OFFCURVE",
"156 1056 CURVE SMOOTH",
"156 1015 LINE",
"324 1015 LINE",
"324 1057 LINE SMOOTH",
"324 1284 OFFCURVE",
"338 1374 OFFCURVE",
"457 1374 CURVE SMOOTH",
"578 1374 OFFCURVE",
"582 1298 OFFCURVE",
"582 1064 CURVE SMOOTH",
"582 958 LINE",
"331 851 OFFCURVE",
"138 786 OFFCURVE",
"138 556 CURVE SMOOTH",
"138 380 LINE SMOOTH",
"138 130 OFFCURVE",
"216 -12 OFFCURVE",
"383 -12 CURVE SMOOTH",
"500 -12 OFFCURVE",
"588 59 OFFCURVE",
"629 130 CURVE",
"666 53 OFFCURVE",
"778 -18 OFFCURVE",
"887 -18 CURVE SMOOTH",
"1168 -18 OFFCURVE",
"1176 198 OFFCURVE",
"1176 504 CURVE SMOOTH",
"1176 558 LINE",
"1012 558 LINE",
"1012 443 LINE SMOOTH",
"1012 246 OFFCURVE",
"1006 126 OFFCURVE",
"887 126 CURVE SMOOTH",
"761 126 OFFCURVE",
"750 231 OFFCURVE",
"750 448 CURVE SMOOTH",
"750 749 LINE",
"1180 749 LINE",
"1180 1010 LINE SMOOTH",
"1180 1300 OFFCURVE",
"1164 1518 OFFCURVE",
"893 1518 CURVE SMOOTH"
);
},
{
closed = 1;
nodes = (
"582 509 LINE",
"584 240 LINE",
"543 162 OFFCURVE",
"474 126 OFFCURVE",
"420 126 CURVE SMOOTH",
"328 126 OFFCURVE",
"306 200 OFFCURVE",
"306 390 CURVE SMOOTH",
"306 516 LINE SMOOTH",
"306 701 OFFCURVE",
"347 728 OFFCURVE",
"582 834 CURVE"
);
},
{
closed = 1;
nodes = (
"1012 1374 OFFCURVE",
"1012 1266 OFFCURVE",
"1012 1070 CURVE SMOOTH",
"1012 879 LINE",
"750 879 LINE",
"750 1062 LINE SMOOTH",
"750 1249 OFFCURVE",
"766 1374 OFFCURVE",
"893 1374 CURVE SMOOTH"
);
}
);
width = 1302;
}
);
unicode = 00E6;
},
{
glyphname = b;
lastChange = "2012-12-22 11:46:55 +0000";
layers = (
{
anchors = (
{
name = bottom;
position = "{498, 0}";
},
{
name = top;
position = "{516, 1760}";
}
);
layerId = "7DA9E391-A28A-4B33-B824-B8724EAC872C";
name = "Regular Condensed";
paths = (
{
closed = 1;
nodes = (
"156 1782 LINE",
"156 0 LINE",
"324 0 LINE",
"324 118 LINE",
"365 21 OFFCURVE",
"447 -12 OFFCURVE",
"526 -12 CURVE SMOOTH",
"735 -12 OFFCURVE",
"769 200 OFFCURVE",
"769 481 CURVE SMOOTH",
"769 1021 LINE SMOOTH",
"769 1303 OFFCURVE",
"727 1527 OFFCURVE",
"498 1518 CURVE SMOOTH",
"425 1515 OFFCURVE",
"341 1457 OFFCURVE",
"324 1375 CURVE",
"324 1782 LINE"
);
},
{
closed = 1;
nodes = (
"590 1373 OFFCURVE",
"601 1250 OFFCURVE",
"601 1063 CURVE SMOOTH",
"601 465 LINE SMOOTH",
"601 226 OFFCURVE",
"576 129 OFFCURVE",
"470 128 CURVE SMOOTH",
"349 128 OFFCURVE",
"324 232 OFFCURVE",
"324 459 CURVE SMOOTH",
"324 1061 LINE SMOOTH",
"324 1336 OFFCURVE",
"382 1373 OFFCURVE",
"476 1373 CURVE SMOOTH"
);
}
);
width = 901;
}
);
unicode = 0062;
},
{
glyphname = c;
lastChange = "2012-12-22 11:46:55 +0000";
layers = (
{
anchors = (
{
name = bottom;
position = "{421, 0}";
},
{
name = top;
position = "{444, 1500}";
}
);
layerId = "7DA9E391-A28A-4B33-B824-B8724EAC872C";
name = "Regular Condensed";
paths = (
{
closed = 1;
nodes = (
"173 1518 OFFCURVE",
"132 1303 OFFCURVE",
"132 1021 CURVE SMOOTH",
"132 509 LINE SMOOTH",
"132 198 OFFCURVE",
"158 -18 OFFCURVE",
"437 -18 CURVE SMOOTH",
"718 -18 OFFCURVE",
"730 198 OFFCURVE",
"730 504 CURVE SMOOTH",
"730 567 LINE",
"562 567 LINE",
"562 443 LINE SMOOTH",
"562 246 OFFCURVE",
"556 132 OFFCURVE",
"437 132 CURVE SMOOTH",
"311 132 OFFCURVE",
"300 231 OFFCURVE",
"300 448 CURVE SMOOTH",
"300 1062 LINE SMOOTH",
"300 1249 OFFCURVE",
"316 1368 OFFCURVE",
"443 1368 CURVE SMOOTH",
"562 1368 OFFCURVE",
"562 1266 OFFCURVE",
"562 1070 CURVE SMOOTH",
"562 964 LINE",
"730 964 LINE",
"730 1030 LINE SMOOTH",
"730 1320 OFFCURVE",
"714 1518 OFFCURVE",
"443 1518 CURVE SMOOTH"
);
}
);
width = 841;
}
);
unicode = 0063;
},
{
glyphname = d;
lastChange = "2012-12-22 11:46:55 +0000";
layers = (
{
anchors = (
{
name = center;
position = "{631, 1630}";
},
{
name = top;
position = "{458, 1760}";
}
);
layerId = "7DA9E391-A28A-4B33-B824-B8724EAC872C";
name = "Regular Condensed";
paths = (
{
closed = 1;
nodes = (
"577 1782 LINE",
"577 1395 LINE",
"549 1461 OFFCURVE",
"485 1518 OFFCURVE",
"412 1518 CURVE SMOOTH",
"182 1518 OFFCURVE",
"132 1303 OFFCURVE",
"132 1021 CURVE SMOOTH",
"132 481 LINE SMOOTH",
"132 200 OFFCURVE",
"166 -12 OFFCURVE",
"375 -12 CURVE SMOOTH",
"454 -12 OFFCURVE",
"536 21 OFFCURVE",
"577 118 CURVE",
"577 0 LINE",
"745 0 LINE",
"745 1782 LINE"
);
},
{
closed = 1;
nodes = (
"555 1372 OFFCURVE",
"578 1268 OFFCURVE",
"578 1041 CURVE SMOOTH",
"578 439 LINE SMOOTH",
"578 164 OFFCURVE",
"522 127 OFFCURVE",
"428 127 CURVE SMOOTH",
"314 127 OFFCURVE",
"301 250 OFFCURVE",
"301 437 CURVE SMOOTH",
"301 1035 LINE SMOOTH",
"301 1274 OFFCURVE",
"328 1371 OFFCURVE",
"434 1372 CURVE SMOOTH"
);
}
);
width = 901;
}
);
unicode = 0064;
},
{
glyphname = eth;
lastChange = "2012-12-22 11:46:55 +0000";
layers = (
{
layerId = "7DA9E391-A28A-4B33-B824-B8724EAC872C";
name = "Regular Condensed";
paths = (
{
closed = 1;
nodes = (
"291 1638 LINE",
"418 1638 OFFCURVE",
"616 1558 OFFCURVE",
"616 1257 CURVE SMOOTH",
"616 1014 LINE",
"574 1071 OFFCURVE",
"498 1100 OFFCURVE",
"436 1102 CURVE SMOOTH",
"184 1112 OFFCURVE",
"110 955 OFFCURVE",
"110 562 CURVE SMOOTH",
"110 449 LINE SMOOTH",
"110 146 OFFCURVE",
"180 -20 OFFCURVE",
"442 -20 CURVE SMOOTH",
"724 -20 OFFCURVE",
"784 206 OFFCURVE",
"784 509 CURVE SMOOTH",
"784 1262 LINE SMOOTH",
"784 1625 OFFCURVE",
"571 1780 OFFCURVE",
"313 1780 CURVE"
);
},
{
closed = 1;
nodes = (
"527 961 OFFCURVE",
"599 914 OFFCURVE",
"616 902 CURVE",
"616 497 LINE SMOOTH",
"616 236 OFFCURVE",
"584 124 OFFCURVE",
"442 124 CURVE SMOOTH",
"314 124 OFFCURVE",
"278 185 OFFCURVE",
"278 444 CURVE SMOOTH",
"278 556 LINE SMOOTH",
"278 858 OFFCURVE",
"307 961 OFFCURVE",
"436 961 CURVE SMOOTH"
);
},
{
closed = 1;
nodes = (
"313 1399 LINE",
"368 1293 LINE",
"936 1629 LINE",
"881 1735 LINE"
);
}
);
width = 940;
}
);
unicode = 00F0;
},
{
glyphname = e;
lastChange = "2012-12-22 11:46:55 +0000";
layers = (
{
anchors = (
{
name = bottom;
position = "{425, 0}";
},
{
name = ogonek;
position = "{649, 10}";
},
{
name = top;
position = "{439, 1500}";
}
);
layerId = "7DA9E391-A28A-4B33-B824-B8724EAC872C";
name = "Regular Condensed";
paths = (
{
closed = 1;
nodes = (
"173 1518 OFFCURVE",
"132 1303 OFFCURVE",
"132 1021 CURVE SMOOTH",
"132 509 LINE SMOOTH",
"132 198 OFFCURVE",
"158 -18 OFFCURVE",
"437 -18 CURVE SMOOTH",
"718 -18 OFFCURVE",
"726 198 OFFCURVE",
"726 504 CURVE SMOOTH",
"726 558 LINE",
"562 558 LINE",
"562 443 LINE SMOOTH",
"562 246 OFFCURVE",
"556 126 OFFCURVE",
"437 126 CURVE SMOOTH",
"311 126 OFFCURVE",
"300 231 OFFCURVE",
"300 448 CURVE SMOOTH",
"300 749 LINE",
"730 749 LINE",
"730 1010 LINE SMOOTH",
"730 1300 OFFCURVE",
"714 1518 OFFCURVE",
"443 1518 CURVE SMOOTH"
);
},
{
closed = 1;
nodes = (
"562 1374 OFFCURVE",
"562 1266 OFFCURVE",
"562 1070 CURVE SMOOTH",
"562 879 LINE",
"300 879 LINE",
"300 1062 LINE SMOOTH",
"300 1249 OFFCURVE",
"316 1374 OFFCURVE",
"443 1374 CURVE SMOOTH"
);
}
);
width = 852;
}
);
unicode = 0065;
},
{
glyphname = f;
lastChange = "2012-12-22 11:46:55 +0000";
layers = (
{
layerId = "7DA9E391-A28A-4B33-B824-B8724EAC872C";
name = "Regular Condensed";
paths = (
{
closed = 1;
nodes = (
"275 1788 OFFCURVE",
"216 1688 OFFCURVE",
"216 1513 CURVE SMOOTH",
"216 1442 LINE",
"80 1442 LINE",
"80 1316 LINE",
"216 1316 LINE",
"216 0 LINE",
"384 0 LINE",
"384 1316 LINE",
"576 1316 LINE",
"576 1442 LINE",
"384 1442 LINE",
"384 1530 LINE SMOOTH",
"384 1600 OFFCURVE",
"394 1647 OFFCURVE",
"498 1647 CURVE SMOOTH",
"519 1647 OFFCURVE",
"545 1645 OFFCURVE",
"576 1641 CURVE",
"576 1769 LINE",
"576 1769 OFFCURVE",
"513 1788 OFFCURVE",
"436 1788 CURVE SMOOTH"
);
}
);
width = 614;
}
);
unicode = 0066;
},
{
glyphname = g;
lastChange = "2012-12-22 11:46:55 +0000";
layers = (
{
anchors = (
{
name = top;
position = "{470, 1500}";
}
);
layerId = "7DA9E391-A28A-4B33-B824-B8724EAC872C";
name = "Regular Condensed";
paths = (
{
closed = 1;
nodes = (
"206 1522 OFFCURVE",
"132 1303 OFFCURVE",
"132 1021 CURVE SMOOTH",
"132 624 LINE SMOOTH",
"132 343 OFFCURVE",
"180 131 OFFCURVE",
"389 131 CURVE SMOOTH",
"468 131 OFFCURVE",
"536 154 OFFCURVE",
"577 251 CURVE",
"577 94 LINE SMOOTH",
"577 -20 OFFCURVE",
"523 -89 OFFCURVE",
"436 -92 CURVE SMOOTH",
"326 -96 OFFCURVE",
"250 -56 OFFCURVE",
"198 -19 CURVE",
"135 -142 LINE",
"205 -197 OFFCURVE",
"318 -236 OFFCURVE",
"437 -231 CURVE SMOOTH",
"695 -220 OFFCURVE",
"745 -18 OFFCURVE",
"745 111 CURVE SMOOTH",
"745 1500 LINE",
"577 1500 LINE",
"577 1405 LINE",
"549 1485 OFFCURVE",
"485 1517 OFFCURVE",
"412 1518 CURVE SMOOTH"
);
},
{
closed = 1;
nodes = (
"557 1374 OFFCURVE",
"577 1270 OFFCURVE",
"577 1056 CURVE SMOOTH",
"577 611 LINE SMOOTH",
"577 329 OFFCURVE",
"538 271 OFFCURVE",
"452 271 CURVE SMOOTH",
"330 271 OFFCURVE",
"300 377 OFFCURVE",
"300 608 CURVE SMOOTH",
"300 1058 LINE SMOOTH",
"300 1245 OFFCURVE",
"314 1374 OFFCURVE",
"441 1374 CURVE SMOOTH"
);
}
);
width = 896;
}
);
unicode = 0067;
},
{
glyphname = h;
lastChange = "2012-12-22 11:46:55 +0000";
layers = (
{
anchors = (
{
name = center;
position = "{246, 1629}";
},
{
name = top;
position = "{470, 1760}";
}
);
layerId = "7DA9E391-A28A-4B33-B824-B8724EAC872C";
name = "Regular Condensed";
paths = (
{
closed = 1;
nodes = (
"156 1782 LINE",
"156 0 LINE",
"324 0 LINE",
"324 1179 LINE SMOOTH",
"324 1322 OFFCURVE",
"409 1368 OFFCURVE",
"492 1368 CURVE SMOOTH",
"570 1368 OFFCURVE",
"625 1331 OFFCURVE",
"625 1194 CURVE SMOOTH",
"625 0 LINE",
"793 0 LINE",
"793 1206 LINE SMOOTH",
"793 1421 OFFCURVE",
"702 1519 OFFCURVE",
"566 1519 CURVE SMOOTH",
"448 1519 OFFCURVE",
"350 1437 OFFCURVE",
"324 1349 CURVE",
"324 1782 LINE"
);
}
);
width = 939;
}
);
unicode = 0068;
},
{
glyphname = i;
lastChange = "2012-12-22 11:46:55 +0000";
layers = (
{
layerId = "7DA9E391-A28A-4B33-B824-B8724EAC872C";
name = "Regular Condensed";
paths = (
{
closed = 1;
nodes = (
"158 1500 LINE",
"158 0 LINE",
"326 0 LINE",
"326 1500 LINE"
);
},
{
closed = 1;
nodes = (
"158 1800 LINE",
"158 1614 LINE",
"326 1614 LINE",
"326 1800 LINE"
);
}
);
width = 484;
}
);
unicode = 0069;
},
{
glyphname = dotlessi;
lastChange = "2012-12-22 11:46:55 +0000";
layers = (
{
anchors = (
{
name = ogonek;
position = "{407, 10}";
},
{
name = top;
position = "{233, 1500}";
}
);
layerId = "7DA9E391-A28A-4B33-B824-B8724EAC872C";
name = "Regular Condensed";
paths = (
{
closed = 1;
nodes = (
"158 1500 LINE",
"158 0 LINE",
"326 0 LINE",
"326 1500 LINE"
);
}
);
width = 484;
}
);
unicode = 0131;
},
{
glyphname = j;
lastChange = "2012-12-22 11:46:55 +0000";
layers = (
{
layerId = "7DA9E391-A28A-4B33-B824-B8724EAC872C";
name = "Regular Condensed";
paths = (
{
closed = 1;
nodes = (
"190 1500 LINE",
"190 -26 LINE SMOOTH",
"190 -63 OFFCURVE",
"181 -88 OFFCURVE",
"149 -93 CURVE SMOOTH",
"121 -96 OFFCURVE",
"82 -92 OFFCURVE",
"82 -92 CURVE",
"82 -212 LINE",
"82 -212 OFFCURVE",
"149 -225 OFFCURVE",
"220 -217 CURVE SMOOTH",
"268 -212 OFFCURVE",
"358 -177 OFFCURVE",
"358 -16 CURVE SMOOTH",
"358 1500 LINE"
);
},
{
closed = 1;
nodes = (
"190 1800 LINE",
"190 1614 LINE",
"358 1614 LINE",
"358 1800 LINE"
);
}
);
width = 514;
}
);
unicode = 006A;
},
{
glyphname = uni0237;
lastChange = "2012-12-22 11:47:01 +0000";
layers = (
{
anchors = (
{
name = top;
position = "{293, 1500}";
}
);
layerId = "7DA9E391-A28A-4B33-B824-B8724EAC872C";
name = "Regular Condensed";
paths = (
{
closed = 1;
nodes = (
"198 1500 LINE",
"198 36 LINE SMOOTH",
"198 -1 OFFCURVE",
"189 -26 OFFCURVE",
"157 -31 CURVE SMOOTH",
"129 -34 OFFCURVE",
"90 -30 OFFCURVE",
"90 -30 CURVE",
"90 -150 LINE",
"90 -150 OFFCURVE",
"157 -163 OFFCURVE",
"228 -155 CURVE SMOOTH",
"276 -150 OFFCURVE",
"366 -115 OFFCURVE",
"366 46 CURVE SMOOTH",
"366 1500 LINE"
);
}
);
width = 522;
}
);
unicode = 0237;
},
{
glyphname = k;
lastChange = "2012-12-22 11:46:55 +0000";
layers = (
{
anchors = (
{
name = bottom;
position = "{411, 0}";
}
);
layerId = "7DA9E391-A28A-4B33-B824-B8724EAC872C";
name = "Regular Condensed";
paths = (
{
closed = 1;
nodes = (
"643 1500 LINE",
"317 753 LINE",
"655 0 LINE",
"829 0 LINE",
"479 757 LINE",
"811 1500 LINE"
);
},
{
closed = 1;
nodes = (
"156 1782 LINE",
"156 0 LINE",
"324 0 LINE",
"324 1782 LINE"
);
}
);
width = 821;
}
);
unicode = 006B;
},
{
glyphname = kgreenlandic;
lastChange = "2012-12-22 11:46:55 +0000";
layers = (
{
layerId = "7DA9E391-A28A-4B33-B824-B8724EAC872C";
name = "Regular Condensed";
paths = (
{
closed = 1;
nodes = (
"643 1500 LINE",
"317 753 LINE",
"655 0 LINE",
"829 0 LINE",
"479 757 LINE",
"811 1500 LINE"
);
},
{
closed = 1;
nodes = (
"156 1500 LINE",
"156 0 LINE",
"324 0 LINE",
"324 1500 LINE"
);
}
);
width = 821;
}
);
unicode = 0138;
},
{
glyphname = l;
lastChange = "2012-12-22 11:46:55 +0000";
layers = (
{
anchors = (
{
name = bottom;
position = "{240, 0}";
},
{
name = center;
position = "{556, 906}";
},
{
name = top;
position = "{240, 1760}";
},
{
name = topright;
position = "{460, 1500}";
}
);
layerId = "7DA9E391-A28A-4B33-B824-B8724EAC872C";
name = "Regular Condensed";
paths = (
{
closed = 1;
nodes = (
"156 1782 LINE",
"156 0 LINE",
"324 0 LINE",
"324 1782 LINE"
);
}
);
width = 480;
}
);
unicode = 006C;
},
{
glyphname = lslash;
lastChange = "2012-12-22 11:47:01 +0000";
layers = (
{
components = (
{
name = l;
transform = "{1, 0, 0, 1, 85, 0}";
}
);
layerId = "7DA9E391-A28A-4B33-B824-B8724EAC872C";
name = "Regular Condensed";
paths = (
{
closed = 1;
nodes = (
"91 921 LINE",
"91 770 LINE",
"607 1002 LINE",
"607 1153 LINE"
);
}
);
width = 718;
}
);
unicode = 0142;
},
{
glyphname = m;
lastChange = "2012-12-22 11:46:55 +0000";
layers = (
{
anchors = (
{
name = top;
position = "{747, 1500}";
}
);
layerId = "7DA9E391-A28A-4B33-B824-B8724EAC872C";
name = "Regular Condensed";
paths = (
{
closed = 1;
nodes = (
"437 1519 OFFCURVE",
"350 1437 OFFCURVE",
"324 1349 CURVE",
"324 1500 LINE",
"156 1500 LINE",
"156 0 LINE",
"324 0 LINE",
"324 1195 LINE SMOOTH",
"324 1307 OFFCURVE",
"381 1368 OFFCURVE",
"484 1368 CURVE SMOOTH",
"562 1368 OFFCURVE",
"614 1331 OFFCURVE",
"614 1214 CURVE SMOOTH",
"614 0 LINE",
"782 0 LINE",
"782 1206 LINE SMOOTH",
"782 1421 OFFCURVE",
"691 1519 OFFCURVE",
"555 1519 CURVE SMOOTH"
);
},
{
closed = 1;
nodes = (
"895 1519 OFFCURVE",
"797 1449 OFFCURVE",
"752 1352 CURVE SMOOTH",
"781 1205 LINE",
"781 1344 OFFCURVE",
"858 1368 OFFCURVE",
"941 1368 CURVE SMOOTH",
"1019 1368 OFFCURVE",
"1072 1331 OFFCURVE",
"1072 1214 CURVE SMOOTH",
"1072 0 LINE",
"1240 0 LINE",
"1240 1206 LINE SMOOTH",
"1240 1421 OFFCURVE",
"1149 1519 OFFCURVE",
"1013 1519 CURVE SMOOTH"
);
}
);
width = 1386;
}
);
unicode = 006D;
},
{
glyphname = n;
lastChange = "2012-12-22 11:46:55 +0000";
layers = (
{
anchors = (
{
name = bottom;
position = "{470, 0}";
},
{
name = top;
position = "{470, 1500}";
}
);
layerId = "7DA9E391-A28A-4B33-B824-B8724EAC872C";
name = "Regular Condensed";
paths = (
{
closed = 1;
nodes = (
"448 1519 OFFCURVE",
"350 1437 OFFCURVE",
"324 1349 CURVE",
"324 1500 LINE",
"156 1500 LINE",
"156 0 LINE",
"324 0 LINE",
"324 1205 LINE SMOOTH",
"324 1334 OFFCURVE",
"403 1374 OFFCURVE",
"486 1374 CURVE SMOOTH",
"564 1374 OFFCURVE",
"625 1331 OFFCURVE",
"625 1214 CURVE SMOOTH",
"625 0 LINE",
"793 0 LINE",
"793 1206 LINE SMOOTH",
"793 1421 OFFCURVE",
"702 1519 OFFCURVE",
"566 1519 CURVE SMOOTH"
);
}
);
width = 939;
}
);
unicode = 006E;
},
{
glyphname = o;
lastChange = "2012-12-22 11:46:55 +0000";
layers = (
{
anchors = (
{
name = top;
position = "{440, 1500}";
}
);
layerId = "7DA9E391-A28A-4B33-B824-B8724EAC872C";
name = "Regular Condensed";
paths = (
{
closed = 1;
nodes = (
"172 1518 OFFCURVE",
"132 1303 OFFCURVE",
"132 1021 CURVE SMOOTH",
"132 509 LINE SMOOTH",
"132 198 OFFCURVE",
"163 -18 OFFCURVE",
"442 -18 CURVE SMOOTH",
"723 -18 OFFCURVE",
"747 203 OFFCURVE",
"747 509 CURVE SMOOTH",
"747 1021 LINE SMOOTH",
"747 1304 OFFCURVE",
"713 1518 OFFCURVE",
"442 1518 CURVE SMOOTH"
);
},
{
closed = 1;
nodes = (
"561 1374 OFFCURVE",
"579 1245 OFFCURVE",
"579 1058 CURVE SMOOTH",
"579 455 LINE SMOOTH",
"579 258 OFFCURVE",
"561 126 OFFCURVE",
"442 126 CURVE SMOOTH",
"316 126 OFFCURVE",
"300 258 OFFCURVE",
"300 455 CURVE SMOOTH",
"300 1058 LINE SMOOTH",
"300 1245 OFFCURVE",
"315 1374 OFFCURVE",
"442 1374 CURVE SMOOTH"
);
}
);
width = 879;
}
);
unicode = 006F;
},
{
glyphname = oslash;
lastChange = "2012-12-22 11:47:01 +0000";
layers = (
{
anchors = (
{
name = top;
position = "{443, 1500}";
}
);
components = (
{
name = o;
transform = "{1, 0, 0, 1, 0, 0}";
}
);
layerId = "7DA9E391-A28A-4B33-B824-B8724EAC872C";
name = "Regular Condensed";
paths = (
{
closed = 1;
nodes = (
"142 -145 LINE",
"242 -173 LINE",
"752 1644 LINE",
"651 1672 LINE"
);
}
);
width = 879;
}
);
unicode = 00F8;
},
{
glyphname = oe;
lastChange = "2012-12-22 11:47:01 +0000";
layers = (
{
anchors = (
{
name = top;
position = "{757, 0}";
}
);
layerId = "7DA9E391-A28A-4B33-B824-B8724EAC872C";
name = "Regular Condensed";
paths = (
{
closed = 1;
nodes = (
"172 1518 OFFCURVE",
"132 1303 OFFCURVE",
"132 1021 CURVE SMOOTH",
"132 509 LINE SMOOTH",
"132 198 OFFCURVE",
"163 -18 OFFCURVE",
"442 -18 CURVE SMOOTH",
"545 -18 OFFCURVE",
"613 32 OFFCURVE",
"659 103 CURVE",
"704 31 OFFCURVE",
"774 -18 OFFCURVE",
"884 -18 CURVE SMOOTH",
"1165 -18 OFFCURVE",
"1173 198 OFFCURVE",
"1173 504 CURVE SMOOTH",
"1173 558 LINE",
"1009 558 LINE",
"1009 443 LINE SMOOTH",
"1009 246 OFFCURVE",
"1003 126 OFFCURVE",
"884 126 CURVE SMOOTH",
"758 126 OFFCURVE",
"747 231 OFFCURVE",
"747 448 CURVE SMOOTH",
"747 749 LINE",
"1177 749 LINE",
"1177 1010 LINE SMOOTH",
"1177 1300 OFFCURVE",
"1161 1518 OFFCURVE",
"890 1518 CURVE SMOOTH",
"783 1518 OFFCURVE",
"712 1469 OFFCURVE",
"665 1398 CURVE",
"620 1469 OFFCURVE",
"549 1518 OFFCURVE",
"442 1518 CURVE SMOOTH"
);
},
{
closed = 1;
nodes = (
"561 1374 OFFCURVE",
"579 1245 OFFCURVE",
"579 1058 CURVE SMOOTH",
"579 455 LINE SMOOTH",
"579 258 OFFCURVE",
"561 126 OFFCURVE",
"442 126 CURVE SMOOTH",
"316 126 OFFCURVE",
"300 258 OFFCURVE",
"300 455 CURVE SMOOTH",
"300 1058 LINE SMOOTH",
"300 1245 OFFCURVE",
"315 1374 OFFCURVE",
"442 1374 CURVE SMOOTH"
);
},
{
closed = 1;
nodes = (
"1010 1374 OFFCURVE",
"1010 1266 OFFCURVE",
"1010 1070 CURVE SMOOTH",
"1010 879 LINE",
"748 879 LINE",
"748 1062 LINE SMOOTH",
"748 1249 OFFCURVE",
"764 1374 OFFCURVE",
"891 1374 CURVE SMOOTH"
);
}
);
width = 1733;
}
);
unicode = 0153;
},
{
glyphname = p;
lastChange = "2012-12-22 11:46:55 +0000";
layers = (
{
layerId = "7DA9E391-A28A-4B33-B824-B8724EAC872C";
name = "Regular Condensed";
paths = (
{
closed = 1;
nodes = (
"447 1512 OFFCURVE",
"365 1479 OFFCURVE",
"324 1382 CURVE",
"324 1500 LINE",
"156 1500 LINE",
"156 -268 LINE",
"324 -268 LINE",
"324 105 LINE",
"352 39 OFFCURVE",
"416 -18 OFFCURVE",
"489 -18 CURVE SMOOTH",
"719 -18 OFFCURVE",
"769 197 OFFCURVE",
"769 479 CURVE SMOOTH",
"769 1019 LINE SMOOTH",
"769 1300 OFFCURVE",
"735 1512 OFFCURVE",
"526 1512 CURVE SMOOTH"
);
},
{
closed = 1;
nodes = (
"590 1373 OFFCURVE",
"601 1250 OFFCURVE",
"601 1063 CURVE SMOOTH",
"601 465 LINE SMOOTH",
"601 226 OFFCURVE",
"576 129 OFFCURVE",
"470 128 CURVE SMOOTH",
"349 128 OFFCURVE",
"324 232 OFFCURVE",
"324 459 CURVE SMOOTH",
"324 1061 LINE SMOOTH",
"324 1336 OFFCURVE",
"382 1373 OFFCURVE",
"476 1373 CURVE SMOOTH"
);
}
);
width = 901;
}
);
unicode = 0070;
},
{
glyphname = thorn;
lastChange = "2012-12-22 11:46:55 +0000";
layers = (
{
layerId = "7DA9E391-A28A-4B33-B824-B8724EAC872C";
name = "Regular Condensed";
paths = (
{
closed = 1;
nodes = (
"156 1782 LINE",
"156 -268 LINE",
"324 -268 LINE",
"324 105 LINE",
"352 39 OFFCURVE",
"416 -18 OFFCURVE",
"489 -18 CURVE SMOOTH",
"719 -18 OFFCURVE",
"769 197 OFFCURVE",
"769 479 CURVE SMOOTH",
"769 1019 LINE SMOOTH",
"769 1300 OFFCURVE",
"735 1512 OFFCURVE",
"526 1512 CURVE SMOOTH",
"447 1512 OFFCURVE",
"365 1479 OFFCURVE",
"324 1382 CURVE",
"324 1782 LINE"
);
},
{
closed = 1;
nodes = (
"590 1373 OFFCURVE",
"601 1250 OFFCURVE",
"601 1063 CURVE SMOOTH",
"601 465 LINE SMOOTH",
"601 226 OFFCURVE",
"576 129 OFFCURVE",
"470 128 CURVE SMOOTH",
"349 128 OFFCURVE",
"324 232 OFFCURVE",
"324 459 CURVE SMOOTH",
"324 1061 LINE SMOOTH",
"324 1336 OFFCURVE",
"382 1373 OFFCURVE",
"476 1373 CURVE SMOOTH"
);
}
);
width = 901;
}
);
unicode = 00FE;
},
{
glyphname = q;
lastChange = "2012-12-22 11:46:55 +0000";
layers = (
{
layerId = "7DA9E391-A28A-4B33-B824-B8724EAC872C";
name = "Regular Condensed";
paths = (
{
closed = 1;
nodes = (
"166 1512 OFFCURVE",
"132 1300 OFFCURVE",
"132 1019 CURVE SMOOTH",
"132 479 LINE SMOOTH",
"132 197 OFFCURVE",
"182 -18 OFFCURVE",
"412 -18 CURVE SMOOTH",
"485 -18 OFFCURVE",
"549 39 OFFCURVE",
"577 105 CURVE",
"577 -268 LINE",
"745 -268 LINE",
"745 1500 LINE",
"577 1500 LINE",
"577 1382 LINE",
"536 1479 OFFCURVE",
"454 1512 OFFCURVE",
"375 1512 CURVE SMOOTH"
);
},
{
closed = 1;
nodes = (
"551 1372 OFFCURVE",
"576 1268 OFFCURVE",
"576 1041 CURVE SMOOTH",
"576 439 LINE SMOOTH",
"576 164 OFFCURVE",
"518 127 OFFCURVE",
"424 127 CURVE SMOOTH",
"310 127 OFFCURVE",
"299 250 OFFCURVE",
"299 437 CURVE SMOOTH",
"299 1035 LINE SMOOTH",
"299 1274 OFFCURVE",
"324 1371 OFFCURVE",
"430 1372 CURVE SMOOTH"
);
}
);
width = 894;
}
);
unicode = 0071;
},
{
glyphname = r;
lastChange = "2012-12-22 11:46:55 +0000";
layers = (
{
anchors = (
{
name = bottom;
position = "{267, 0}";
},
{
name = top;
position = "{343, 1500}";
}
);
layerId = "7DA9E391-A28A-4B33-B824-B8724EAC872C";
name = "Regular Condensed";
paths = (
{
closed = 1;
nodes = (
"446 1518 OFFCURVE",
"358 1449 OFFCURVE",
"324 1333 CURVE",
"324 1500 LINE",
"156 1500 LINE",
"156 0 LINE",
"324 0 LINE",
"324 1237 LINE",
"398 1345 OFFCURVE",
"484 1375 OFFCURVE",
"582 1375 CURVE",
"582 1375 OFFCURVE",
"584 1518 OFFCURVE",
"579 1518 CURVE SMOOTH"
);
}
);
width = 628.395;
}
);
unicode = 0072;
},
{
glyphname = s;
lastChange = "2012-12-22 11:47:06 +0000";
layers = (
{
anchors = (
{
name = bottom;
position = "{387, 0}";
},
{
name = top;
position = "{407, 1500}";
}
);
layerId = "7DA9E391-A28A-4B33-B824-B8724EAC872C";
name = "Regular Condensed";
paths = (
{
closed = 1;
nodes = (
"213 1518 OFFCURVE",
"92 1408 OFFCURVE",
"92 1175 CURVE SMOOTH",
"92 1023 OFFCURVE",
"164 880 OFFCURVE",
"293 754 CURVE SMOOTH",
"334 715 OFFCURVE",
"363 686 OFFCURVE",
"381 667 CURVE SMOOTH",
"488 560 OFFCURVE",
"539 447 OFFCURVE",
"539 337 CURVE SMOOTH",
"539 179 OFFCURVE",
"496 129 OFFCURVE",
"404 129 CURVE SMOOTH",
"312 129 OFFCURVE",
"276 236 OFFCURVE",
"276 427 CURVE SMOOTH",
"276 533 LINE",
"108 533 LINE",
"108 409 LINE SMOOTH",
"108 100 OFFCURVE",
"219 -20 OFFCURVE",
"415 -20 CURVE SMOOTH",
"616 -20 OFFCURVE",
"710 120 OFFCURVE",
"710 331 CURVE SMOOTH",
"710 493 OFFCURVE",
"635 642 OFFCURVE",
"503 772 CURVE SMOOTH",
"416 856 LINE SMOOTH",
"306 965 OFFCURVE",
"256 1076 OFFCURVE",
"259 1183 CURVE SMOOTH",
"264 1324 OFFCURVE",
"307 1368 OFFCURVE",
"396 1368 CURVE SMOOTH",
"488 1368 OFFCURVE",
"517 1261 OFFCURVE",
"517 1070 CURVE SMOOTH",
"517 964 LINE",
"685 964 LINE",
"685 1030 LINE SMOOTH",
"685 1401 OFFCURVE",
"581 1518 OFFCURVE",
"395 1518 CURVE SMOOTH"
);
}
);
width = 773;
}
);
unicode = 0073;
},
{
glyphname = germandbls;
lastChange = "2012-12-22 11:46:55 +0000";
layers = (
{
layerId = "7DA9E391-A28A-4B33-B824-B8724EAC872C";
name = "Regular Condensed";
paths = (
{
closed = 1;
nodes = (
"168 1781 OFFCURVE",
"150 1660 OFFCURVE",
"150 1417 CURVE SMOOTH",
"150 0 LINE",
"316 0 LINE",
"316 1490 LINE SMOOTH",
"316 1627 OFFCURVE",
"355 1667 OFFCURVE",
"463 1667 CURVE SMOOTH",
"591 1667 OFFCURVE",
"629 1627 OFFCURVE",
"629 1490 CURVE SMOOTH",
"629 1170 LINE SMOOTH",
"629 1047 OFFCURVE",
"579 1011 OFFCURVE",
"435 1011 CURVE",
"435 863 LINE",
"628 863 OFFCURVE",
"685 816 OFFCURVE",
"685 656 CURVE SMOOTH",
"685 395 LINE SMOOTH",
"685 170 OFFCURVE",
"655 141 OFFCURVE",
"426 141 CURVE",
"426 0 LINE",
"530 0 LINE SMOOTH",
"830 0 OFFCURVE",
"851 177 OFFCURVE",
"851 476 CURVE SMOOTH",
"851 553 LINE SMOOTH",
"851 813 OFFCURVE",
"799 903 OFFCURVE",
"624 945 CURVE",
"753 987 OFFCURVE",
"791 1050 OFFCURVE",
"791 1220 CURVE SMOOTH",
"791 1417 LINE SMOOTH",
"791 1698 OFFCURVE",
"719 1781 OFFCURVE",
"451 1781 CURVE SMOOTH"
);
}
);
width = 949;
},
{
associatedMasterId = "7DA9E391-A28A-4B33-B824-B8724EAC872C";
layerId = "9BE1546E-C069-4E43-A5FB-69DCEE8B87DF";
name = "Regular Condensed Dec 21 12, 22:13";
paths = (
{
closed = 1;
nodes = (
"150 1760 LINE",
"150 0 LINE",
"435 0 LINE",
"686 0 OFFCURVE",
"787 145 OFFCURVE",
"787 506 CURVE SMOOTH",
"786 1266 LINE",
"786 1619 OFFCURVE",
"687 1760 OFFCURVE",
"441 1760 CURVE SMOOTH"
);
},
{
closed = 1;
nodes = (
"567 1623 OFFCURVE",
"618 1524 OFFCURVE",
"618 1278 CURVE SMOOTH",
"619 505 LINE",
"619 245 OFFCURVE",
"566 141 OFFCURVE",
"435 141 CURVE SMOOTH",
"318 141 LINE",
"318 1623 LINE",
"441 1623 LINE"
);
}
);
width = 1109;
}
);
unicode = 00DF;
},
{
glyphname = t;
lastChange = "2012-12-22 11:46:55 +0000";
layers = (
{
anchors = (
{
name = bottom;
position = "{395, 0}";
},
{
name = caron;
position = "{530, 1140}";
}
);
layerId = "7DA9E391-A28A-4B33-B824-B8724EAC872C";
name = "Regular Condensed";
paths = (
{
closed = 1;
nodes = (
"191 1760 LINE",
"191 1500 LINE",
"45 1500 LINE",
"45 1372 LINE",
"191 1372 LINE",
"191 219 LINE SMOOTH",
"191 50 OFFCURVE",
"222 -9 OFFCURVE",
"415 -9 CURVE SMOOTH",
"531 -9 LINE",
"531 130 LINE",
"371 130 OFFCURVE",
"359 141 OFFCURVE",
"359 220 CURVE SMOOTH",
"359 1372 LINE",
"531 1372 LINE",
"531 1500 LINE",
"359 1500 LINE",
"359 1760 LINE"
);
}
);
width = 592;
}
);
unicode = 0074;
},
{
glyphname = u;
lastChange = "2012-12-22 11:46:55 +0000";
layers = (
{
anchors = (
{
name = ogonek;
position = "{845, 10}";
},
{
name = top;
position = "{488, 1500}";
}
);
layerId = "7DA9E391-A28A-4B33-B824-B8724EAC872C";
name = "Regular Condensed";
paths = (
{
closed = 1;
nodes = (
"615 1500 LINE",
"615 315 LINE SMOOTH",
"615 205 OFFCURVE",
"558 132 OFFCURVE",
"455 132 CURVE SMOOTH",
"365 132 OFFCURVE",
"314 189 OFFCURVE",
"314 306 CURVE SMOOTH",
"314 1500 LINE",
"146 1500 LINE",
"146 294 LINE SMOOTH",
"146 56 OFFCURVE",
"280 -20 OFFCURVE",
"388 -20 CURVE SMOOTH",
"506 -20 OFFCURVE",
"589 63 OFFCURVE",
"615 151 CURVE",
"615 0 LINE",
"783 0 LINE",
"783 1500 LINE"
);
}
);
width = 939;
}
);
unicode = 0075;
},
{
glyphname = v;
lastChange = "2012-12-22 11:46:55 +0000";
layers = (
{
layerId = "7DA9E391-A28A-4B33-B824-B8724EAC872C";
name = "Regular Condensed";
paths = (
{
closed = 1;
nodes = (
"504 1500 LINE",
"398 627 LINE",
"368 306 LINE",
"350 306 LINE",
"314 626 LINE",
"199 1500 LINE",
"44 1500 LINE",
"255 0 LINE",
"443 0 LINE",
"658 1500 LINE"
);
}
);
width = 702;
}
);
unicode = 0076;
},
{
glyphname = w;
lastChange = "2012-12-22 11:46:55 +0000";
layers = (
{
anchors = (
{
name = top;
position = "{560, 1500}";
}
);
layerId = "7DA9E391-A28A-4B33-B824-B8724EAC872C";
name = "Regular Condensed";
paths = (
{
closed = 1;
nodes = (
"481 1500 LINE",
"365 655 LINE",
"338 341 LINE",
"327 341 LINE",
"298 654 LINE",
"206 1500 LINE",
"55 1500 LINE",
"235 0 LINE",
"390 0 LINE",
"594 1500 LINE"
);
},
{
closed = 1;
nodes = (
"901 1500 LINE",
"827 685 LINE",
"806 341 LINE",
"796 341 LINE",
"756 684 LINE",
"625 1500 LINE",
"532 1500 LINE",
"709 0 LINE",
"871 0 LINE",
"1047 1500 LINE"
);
}
);
width = 1103;
}
);
unicode = 0077;
},
{
glyphname = x;
lastChange = "2012-12-22 11:46:55 +0000";
layers = (
{
layerId = "7DA9E391-A28A-4B33-B824-B8724EAC872C";
name = "Regular Condensed";
paths = (
{
closed = 1;
nodes = (
"501 1500 LINE",
"295 780 LINE",
"278 780 LINE",
"31 0 LINE",
"181 0 LINE",
"392 737 LINE",
"410 737 LINE",
"658 1500 LINE"
);
},
{
closed = 1;
nodes = (
"49 1500 LINE",
"508 0 LINE",
"664 0 LINE",
"196 1500 LINE"
);
}
);
width = 694;
}
);
unicode = 0078;
},
{
glyphname = y;
lastChange = "2012-12-22 11:46:55 +0000";
layers = (
{
anchors = (
{
name = top;
position = "{386, 1500}";
}
);
layerId = "7DA9E391-A28A-4B33-B824-B8724EAC872C";
name = "Regular Condensed";
paths = (
{
closed = 1;
nodes = (
"547 1500 LINE",
"443 711 LINE",
"401 304 LINE",
"386 304 LINE",
"340 711 LINE",
"224 1500 LINE",
"58 1500 LINE",
"306 43 LINE SMOOTH",
"316 -17 OFFCURVE",
"324 -68 OFFCURVE",
"304 -90 CURVE SMOOTH",
"293 -102 OFFCURVE",
"240 -105 OFFCURVE",
"183 -105 CURVE SMOOTH",
"123 -105 LINE",
"123 -242 LINE",
"273 -242 LINE SMOOTH",
"424 -242 OFFCURVE",
"443 -183 OFFCURVE",
"470 -8 CURVE SMOOTH",
"712 1500 LINE"
);
}
);
width = 752;
}
);
unicode = 0079;
},
{
glyphname = z;
lastChange = "2012-12-22 11:46:55 +0000";
layers = (
{
anchors = (
{
name = top;
position = "{372, 1500}";
}
);
layerId = "7DA9E391-A28A-4B33-B824-B8724EAC872C";
name = "Regular Condensed";
paths = (
{
closed = 1;
nodes = (
"105 1500 LINE",
"105 1355 LINE",
"409 1355 LINE",
"80 123 LINE",
"80 0 LINE",
"567 0 LINE",
"567 145 LINE",
"253 145 LINE",
"586 1391 LINE",
"586 1500 LINE"
);
}
);
width = 650;
}
);
unicode = 007A;
},
{
glyphname = uniFB01;
lastChange = "2012-12-22 11:46:55 +0000";
layers = (
{
layerId = "7DA9E391-A28A-4B33-B824-B8724EAC872C";
name = "Regular Condensed";
paths = (
{
closed = 1;
nodes = (
"252 1788 OFFCURVE",
"130 1697 OFFCURVE",
"130 1536 CURVE SMOOTH",
"130 1440 LINE",
"34 1440 LINE",
"34 1190 LINE",
"130 1190 LINE",
"130 0 LINE",
"486 0 LINE",
"486 1190 LINE",
"768 1190 LINE",
"768 0 LINE",
"1124 0 LINE",
"1124 1440 LINE",
"486 1440 LINE",
"486 1493 LINE SMOOTH",
"486 1541 OFFCURVE",
"522 1551 OFFCURVE",
"557 1551 CURVE SMOOTH",
"572 1551 OFFCURVE",
"588 1550 OFFCURVE",
"600 1548 CURVE",
"600 1749 LINE",
"554 1768 OFFCURVE",
"490 1788 OFFCURVE",
"413 1788 CURVE SMOOTH"
);
},
{
closed = 1;
nodes = (
"768 1800 LINE",
"768 1600 LINE",
"1124 1600 LINE",
"1124 1800 LINE"
);
}
);
width = 1239;
}
);
unicode = FB01;
},
{
glyphname = uniFB02;
lastChange = "2012-12-22 11:47:01 +0000";
layers = (
{
layerId = "7DA9E391-A28A-4B33-B824-B8724EAC872C";
name = "Regular Condensed";
paths = (
{
closed = 1;
nodes = (
"271 1781 OFFCURVE",
"130 1716 OFFCURVE",
"130 1440 CURVE",
"34 1440 LINE",
"34 1190 LINE",
"130 1190 LINE",
"130 0 LINE",
"486 0 LINE",
"486 1190 LINE",
"600 1190 LINE",
"600 1440 LINE",
"486 1440 LINE",
"486 1535 OFFCURVE",
"510 1563 OFFCURVE",
"609 1563 CURVE SMOOTH",
"656 1563 OFFCURVE",
"711 1556 OFFCURVE",
"768 1550 CURVE",
"768 0 LINE",
"1132 0 LINE",
"1132 1709 LINE",
"987 1748 OFFCURVE",
"779 1781 OFFCURVE",
"590 1781 CURVE SMOOTH"
);
}
);
width = 1247;
}
);
unicode = FB02;
},
{
glyphname = uniFB00;
lastChange = "2012-12-22 11:46:55 +0000";
layers = (
{
layerId = "7DA9E391-A28A-4B33-B824-B8724EAC872C";
name = "Regular Condensed";
paths = (
{
closed = 1;
nodes = (
"905 1788 OFFCURVE",
"783 1697 OFFCURVE",
"783 1536 CURVE SMOOTH",
"783 1440 LINE",
"486 1440 LINE",
"486 1493 LINE SMOOTH",
"486 1541 OFFCURVE",
"522 1551 OFFCURVE",
"557 1551 CURVE SMOOTH",
"572 1551 OFFCURVE",
"588 1550 OFFCURVE",
"600 1548 CURVE",
"600 1749 LINE",
"554 1768 OFFCURVE",
"490 1788 OFFCURVE",
"413 1788 CURVE SMOOTH",
"252 1788 OFFCURVE",
"130 1697 OFFCURVE",
"130 1536 CURVE SMOOTH",
"130 1440 LINE",
"34 1440 LINE",
"34 1190 LINE",
"130 1190 LINE",
"130 0 LINE",
"486 0 LINE",
"486 1190 LINE",
"783 1190 LINE",
"783 0 LINE",
"1139 0 LINE",
"1139 1190 LINE",
"1253 1190 LINE",
"1253 1440 LINE",
"1139 1440 LINE",
"1139 1493 LINE SMOOTH",
"1139 1541 OFFCURVE",
"1175 1551 OFFCURVE",
"1210 1551 CURVE SMOOTH",
"1225 1551 OFFCURVE",
"1241 1550 OFFCURVE",
"1253 1548 CURVE",
"1253 1749 LINE",
"1207 1768 OFFCURVE",
"1143 1788 OFFCURVE",
"1066 1788 CURVE SMOOTH"
);
}
);
width = 1306;
}
);
},
{
glyphname = uniFB03;
lastChange = "2012-12-22 11:46:55 +0000";
layers = (
{
layerId = "7DA9E391-A28A-4B33-B824-B8724EAC872C";
name = "Regular Condensed";
paths = (
{
closed = 1;
nodes = (
"905 1788 OFFCURVE",
"783 1697 OFFCURVE",
"783 1536 CURVE SMOOTH",
"783 1440 LINE",
"486 1440 LINE",
"486 1493 LINE SMOOTH",
"486 1541 OFFCURVE",
"522 1551 OFFCURVE",
"557 1551 CURVE SMOOTH",
"572 1551 OFFCURVE",
"588 1550 OFFCURVE",
"600 1548 CURVE",
"600 1749 LINE",
"554 1768 OFFCURVE",
"490 1788 OFFCURVE",
"413 1788 CURVE SMOOTH",
"252 1788 OFFCURVE",
"130 1697 OFFCURVE",
"130 1536 CURVE SMOOTH",
"130 1440 LINE",
"34 1440 LINE",
"34 1190 LINE",
"130 1190 LINE",
"130 0 LINE",
"486 0 LINE",
"486 1190 LINE",
"783 1190 LINE",
"783 0 LINE",
"1139 0 LINE",
"1139 1190 LINE",
"1421 1190 LINE",
"1421 0 LINE",
"1777 0 LINE",
"1777 1440 LINE",
"1139 1440 LINE",
"1139 1493 LINE SMOOTH",
"1139 1541 OFFCURVE",
"1175 1551 OFFCURVE",
"1210 1551 CURVE SMOOTH",
"1225 1551 OFFCURVE",
"1241 1550 OFFCURVE",
"1253 1548 CURVE",
"1253 1749 LINE",
"1207 1768 OFFCURVE",
"1143 1788 OFFCURVE",
"1066 1788 CURVE SMOOTH"
);
},
{
closed = 1;
nodes = (
"1421 1800 LINE",
"1421 1600 LINE",
"1777 1600 LINE",
"1777 1800 LINE"
);
}
);
width = 1892;
}
);
},
{
glyphname = uniFB04;
lastChange = "2012-12-22 11:47:01 +0000";
layers = (
{
layerId = "7DA9E391-A28A-4B33-B824-B8724EAC872C";
name = "Regular Condensed";
paths = (
{
closed = 1;
nodes = (
"252 1788 OFFCURVE",
"130 1697 OFFCURVE",
"130 1536 CURVE SMOOTH",
"130 1440 LINE",
"34 1440 LINE",
"34 1190 LINE",
"130 1190 LINE",
"130 0 LINE",
"486 0 LINE",
"486 1190 LINE",
"783 1190 LINE",
"783 0 LINE",
"1139 0 LINE",
"1139 1190 LINE",
"1253 1190 LINE",
"1253 1440 LINE",
"1139 1440 LINE",
"1139 1539 OFFCURVE",
"1223 1560 OFFCURVE",
"1303 1560 CURVE SMOOTH",
"1349 1560 OFFCURVE",
"1395 1553 OFFCURVE",
"1421 1550 CURVE",
"1421 0 LINE",
"1785 0 LINE",
"1785 1729 LINE",
"1588 1758 OFFCURVE",
"1407 1781 OFFCURVE",
"1255 1781 CURVE SMOOTH",
"968 1781 OFFCURVE",
"783 1701 OFFCURVE",
"783 1440 CURVE",
"486 1440 LINE",
"486 1493 LINE SMOOTH",
"486 1541 OFFCURVE",
"522 1551 OFFCURVE",
"557 1551 CURVE SMOOTH",
"572 1551 OFFCURVE",
"588 1550 OFFCURVE",
"600 1548 CURVE",
"600 1749 LINE",
"554 1768 OFFCURVE",
"490 1788 OFFCURVE",
"413 1788 CURVE SMOOTH"
);
}
);
width = 1900;
}
);
},
{
glyphname = Delta;
lastChange = "2012-12-22 11:46:55 +0000";
layers = (
{
layerId = "7DA9E391-A28A-4B33-B824-B8724EAC872C";
name = "Regular Condensed";
paths = (
{
closed = 1;
nodes = (
"217 1353 LINE",
"34 0 LINE",
"887 0 LINE",
"708 1353 LINE"
);
},
{
closed = 1;
nodes = (
"542 230 LINE",
"376 230 LINE",
"443 1044 LINE",
"475 1044 LINE"
);
}
);
width = 921;
}
);
unicode = 0394;
},
{
glyphname = uni03A9;
lastChange = "2012-12-22 11:46:55 +0000";
layers = (
{
anchors = (
{
name = topleft;
position = "{20, 0}";
}
);
layerId = "7DA9E391-A28A-4B33-B824-B8724EAC872C";
name = "Regular Condensed";
paths = (
{
closed = 1;
nodes = (
"218 1607 OFFCURVE",
"72 1462 OFFCURVE",
"72 1189 CURVE SMOOTH",
"72 710 LINE SMOOTH",
"72 499 OFFCURVE",
"104 345 OFFCURVE",
"169 246 CURVE",
"47 246 LINE",
"47 0 LINE",
"463 0 LINE",
"463 247 LINE",
"399 282 OFFCURVE",
"411 441 OFFCURVE",
"411 581 CURVE SMOOTH",
"411 1211 LINE SMOOTH",
"411 1281 OFFCURVE",
"427 1335 OFFCURVE",
"496 1335 CURVE SMOOTH",
"565 1335 OFFCURVE",
"581 1281 OFFCURVE",
"581 1211 CURVE SMOOTH",
"581 581 LINE SMOOTH",
"581 431 OFFCURVE",
"604 285 OFFCURVE",
"529 247 CURVE",
"529 0 LINE",
"945 0 LINE",
"945 246 LINE",
"823 246 LINE",
"888 345 OFFCURVE",
"920 499 OFFCURVE",
"920 710 CURVE SMOOTH",
"920 1189 LINE SMOOTH",
"920 1462 OFFCURVE",
"774 1607 OFFCURVE",
"496 1607 CURVE SMOOTH"
);
}
);
width = 992;
}
);
unicode = 03A9;
},
{
glyphname = mu;
lastChange = "2012-12-22 11:47:01 +0000";
layers = (
{
layerId = "7DA9E391-A28A-4B33-B824-B8724EAC872C";
name = "Regular Condensed";
paths = (
{
closed = 1;
nodes = (
"615 1500 LINE",
"615 315 LINE SMOOTH",
"615 205 OFFCURVE",
"558 132 OFFCURVE",
"455 132 CURVE SMOOTH",
"365 132 OFFCURVE",
"314 180 OFFCURVE",
"314 184 CURVE SMOOTH",
"314 1500 LINE",
"146 1500 LINE",
"146 -186 LINE",
"313 -186 LINE",
"313 -7 LINE",
"338 -16 OFFCURVE",
"364 -20 OFFCURVE",
"388 -20 CURVE SMOOTH",
"506 -20 OFFCURVE",
"589 63 OFFCURVE",
"615 151 CURVE",
"615 0 LINE",
"783 0 LINE",
"783 1500 LINE"
);
}
);
width = 939;
}
);
unicode = 03BC;
},
{
glyphname = ordfeminine;
lastChange = "2012-12-22 11:46:55 +0000";
layers = (
{
layerId = "7DA9E391-A28A-4B33-B824-B8724EAC872C";
name = "Regular Condensed";
paths = (
{
closed = 1;
nodes = (
"254 1608 OFFCURVE",
"237 1434 OFFCURVE",
"237 1237 CURVE SMOOTH",
"237 1204 LINE",
"372 1204 LINE",
"372 1238 LINE SMOOTH",
"372 1420 OFFCURVE",
"383 1492 OFFCURVE",
"479 1492 CURVE SMOOTH",
"576 1492 OFFCURVE",
"579 1418 OFFCURVE",
"579 1243 CURVE SMOOTH",
"579 571 LINE",
"562 538 OFFCURVE",
"510 491 OFFCURVE",
"449 491 CURVE SMOOTH",
"375 491 OFFCURVE",
"357 550 OFFCURVE",
"357 703 CURVE SMOOTH",
"357 804 LINE SMOOTH",
"357 957 OFFCURVE",
"393 976 OFFCURVE",
"596 1067 CURVE",
"596 1166 LINE",
"386 1076 OFFCURVE",
"223 1026 OFFCURVE",
"223 836 CURVE SMOOTH",
"223 695 LINE SMOOTH",
"223 494 OFFCURVE",
"285 380 OFFCURVE",
"419 380 CURVE SMOOTH",
"516 380 OFFCURVE",
"568 449 OFFCURVE",
"579 485 CURVE",
"579 390 LINE",
"714 390 LINE",
"714 1185 LINE SMOOTH",
"714 1458 OFFCURVE",
"703 1608 OFFCURVE",
"479 1608 CURVE SMOOTH"
);
}
);
width = 927;
}
);
unicode = 00AA;
},
{
glyphname = ordmasculine;
lastChange = "2012-12-22 11:46:55 +0000";
layers = (
{
layerId = "7DA9E391-A28A-4B33-B824-B8724EAC872C";
name = "Regular Condensed";
paths = (
{
closed = 1;
nodes = (
"258 1607 OFFCURVE",
"226 1434 OFFCURVE",
"226 1208 CURVE SMOOTH",
"226 797 LINE SMOOTH",
"226 548 OFFCURVE",
"251 375 OFFCURVE",
"475 375 CURVE SMOOTH",
"700 375 OFFCURVE",
"719 552 OFFCURVE",
"719 797 CURVE SMOOTH",
"719 1208 LINE SMOOTH",
"719 1435 OFFCURVE",
"692 1607 OFFCURVE",
"475 1607 CURVE SMOOTH"
);
},
{
closed = 1;
nodes = (
"570 1491 OFFCURVE",
"584 1388 OFFCURVE",
"584 1238 CURVE SMOOTH",
"584 754 LINE SMOOTH",
"584 596 OFFCURVE",
"570 490 OFFCURVE",
"475 490 CURVE SMOOTH",
"373 490 OFFCURVE",
"361 596 OFFCURVE",
"361 754 CURVE SMOOTH",
"361 1238 LINE SMOOTH",
"361 1388 OFFCURVE",
"373 1491 OFFCURVE",
"475 1491 CURVE SMOOTH"
);
}
);
width = 908;
}
);
unicode = 00BA;
},
{
glyphname = zero;
lastChange = "2012-12-22 11:46:55 +0000";
layers = (
{
layerId = "7DA9E391-A28A-4B33-B824-B8724EAC872C";
name = "Regular Condensed";
paths = (
{
closed = 1;
nodes = (
"144 1781 OFFCURVE",
"100 1619 OFFCURVE",
"100 1316 CURVE SMOOTH",
"100 475 LINE SMOOTH",
"100 162 OFFCURVE",
"138 -21 OFFCURVE",
"426 -21 CURVE SMOOTH",
"714 -21 OFFCURVE",
"756 162 OFFCURVE",
"756 475 CURVE SMOOTH",
"756 1316 LINE SMOOTH",
"756 1619 OFFCURVE",
"708 1781 OFFCURVE",
"426 1781 CURVE SMOOTH"
);
},
{
closed = 1;
nodes = (
"494 1640 OFFCURVE",
"588 1639 OFFCURVE",
"588 1327 CURVE SMOOTH",
"588 470 LINE SMOOTH",
"588 119 OFFCURVE",
"501 119 OFFCURVE",
"424 119 CURVE SMOOTH",
"342 119 OFFCURVE",
"268 119 OFFCURVE",
"268 470 CURVE SMOOTH",
"268 1328 LINE SMOOTH",
"268 1639 OFFCURVE",
"356 1640 OFFCURVE",
"424 1640 CURVE SMOOTH"
);
}
);
width = 856;
}
);
unicode = 0030;
},
{
glyphname = one;
lastChange = "2012-12-22 11:46:55 +0000";
layers = (
{
layerId = "7DA9E391-A28A-4B33-B824-B8724EAC872C";
name = "Regular Condensed";
paths = (
{
closed = 1;
nodes = (
"329 1761 LINE",
"273 1629 OFFCURVE",
"157 1556 OFFCURVE",
"51 1541 CURVE",
"51 1431 LINE",
"125 1431 OFFCURVE",
"221 1460 OFFCURVE",
"269 1517 CURVE",
"269 0 LINE",
"437 0 LINE",
"437 1761 LINE"
);
}
);
width = 626;
}
);
unicode = 0031;
},
{
glyphname = two;
lastChange = "2012-12-22 11:46:55 +0000";
layers = (
{
layerId = "7DA9E391-A28A-4B33-B824-B8724EAC872C";
name = "Regular Condensed";
paths = (
{
closed = 1;
nodes = (
"191 1780 OFFCURVE",
"176 1553 OFFCURVE",
"176 1173 CURVE SMOOTH",
"176 1065 LINE",
"344 1065 LINE",
"344 1297 LINE SMOOTH",
"344 1592 OFFCURVE",
"402 1638 OFFCURVE",
"468 1638 CURVE SMOOTH",
"532 1638 OFFCURVE",
"583 1590 OFFCURVE",
"583 1313 CURVE SMOOTH",
"583 1191 OFFCURVE",
"553 1026 OFFCURVE",
"512 942 CURVE SMOOTH",
"390 689 LINE SMOOTH",
"283 467 OFFCURVE",
"182 220 OFFCURVE",
"182 94 CURVE SMOOTH",
"182 0 LINE",
"720 0 LINE",
"720 120 LINE",
"349 120 LINE",
"402 574 OFFCURVE",
"744 823 OFFCURVE",
"744 1293 CURVE SMOOTH",
"744 1521 OFFCURVE",
"711 1780 OFFCURVE",
"488 1780 CURVE SMOOTH"
);
}
);
width = 856;
}
);
unicode = 0032;
},
{
glyphname = three;
lastChange = "2012-12-22 11:46:55 +0000";
layers = (
{
layerId = "7DA9E391-A28A-4B33-B824-B8724EAC872C";
name = "Regular Condensed";
paths = (
{
closed = 1;
nodes = (
"205 1780 OFFCURVE",
"125 1623 OFFCURVE",
"125 1320 CURVE SMOOTH",
"125 1283 LINE",
"293 1283 LINE",
"293 1317 LINE SMOOTH",
"293 1579 OFFCURVE",
"347 1638 OFFCURVE",
"435 1638 CURVE SMOOTH",
"525 1638 OFFCURVE",
"596 1593 OFFCURVE",
"596 1321 CURVE SMOOTH",
"596 1030 OFFCURVE",
"535 990 OFFCURVE",
"391 990 CURVE SMOOTH",
"348 990 LINE",
"348 850 LINE",
"393 850 LINE SMOOTH",
"540 850 OFFCURVE",
"599 765 OFFCURVE",
"599 477 CURVE SMOOTH",
"599 215 OFFCURVE",
"565 121 OFFCURVE",
"437 121 CURVE SMOOTH",
"307 121 OFFCURVE",
"287 201 OFFCURVE",
"287 473 CURVE SMOOTH",
"287 529 LINE",
"119 529 LINE",
"119 474 LINE SMOOTH",
"119 141 OFFCURVE",
"203 -20 OFFCURVE",
"435 -20 CURVE SMOOTH",
"667 -20 OFFCURVE",
"767 141 OFFCURVE",
"767 474 CURVE SMOOTH",
"767 671 OFFCURVE",
"715 861 OFFCURVE",
"588 918 CURVE",
"715 966 OFFCURVE",
"764 1120 OFFCURVE",
"764 1320 CURVE SMOOTH",
"764 1623 OFFCURVE",
"669 1780 OFFCURVE",
"437 1780 CURVE SMOOTH"
);
}
);
width = 876;
}
);
unicode = 0033;
},
{
glyphname = four;
lastChange = "2012-12-22 11:46:55 +0000";
layers = (
{
layerId = "7DA9E391-A28A-4B33-B824-B8724EAC872C";
name = "Regular Condensed";
paths = (
{
closed = 1;
nodes = (
"493 1761 LINE",
"100 458 LINE",
"100 345 LINE",
"504 345 LINE",
"504 -1 LINE",
"660 -1 LINE",
"660 345 LINE",
"811 345 LINE",
"811 477 LINE",
"660 477 LINE",
"660 1761 LINE"
);
},
{
closed = 1;
nodes = (
"504 477 LINE",
"247 477 LINE",
"504 1423 LINE"
);
}
);
width = 856;
}
);
unicode = 0034;
},
{
glyphname = five;
lastChange = "2012-12-22 11:46:55 +0000";
layers = (
{
layerId = "7DA9E391-A28A-4B33-B824-B8724EAC872C";
name = "Regular Condensed";
paths = (
{
closed = 1;
nodes = (
"154 1760 LINE",
"154 902 LINE",
"296 882 LINE",
"296 1018 OFFCURVE",
"347 1080 OFFCURVE",
"414 1080 CURVE SMOOTH",
"497 1080 OFFCURVE",
"524 1009 OFFCURVE",
"524 863 CURVE SMOOTH",
"524 291 LINE SMOOTH",
"524 175 OFFCURVE",
"488 119 OFFCURVE",
"412 119 CURVE SMOOTH",
"327 119 OFFCURVE",
"300 188 OFFCURVE",
"300 280 CURVE SMOOTH",
"300 476 LINE",
"132 476 LINE",
"132 299 LINE SMOOTH",
"132 138 OFFCURVE",
"187 -20 OFFCURVE",
"412 -20 CURVE SMOOTH",
"666 -20 OFFCURVE",
"684 149 OFFCURVE",
"684 668 CURVE SMOOTH",
"684 1148 OFFCURVE",
"595 1225 OFFCURVE",
"445 1225 CURVE SMOOTH",
"388 1225 OFFCURVE",
"327 1202 OFFCURVE",
"307 1163 CURVE",
"307 1607 LINE",
"645 1607 LINE",
"645 1760 LINE"
);
}
);
width = 856;
}
);
unicode = 0035;
},
{
glyphname = six;
lastChange = "2012-12-22 11:46:55 +0000";
layers = (
{
layerId = "7DA9E391-A28A-4B33-B824-B8724EAC872C";
name = "Regular Condensed";
paths = (
{
closed = 1;
nodes = (
"183 1780 OFFCURVE",
"110 1625 OFFCURVE",
"110 1262 CURVE SMOOTH",
"110 509 LINE SMOOTH",
"110 206 OFFCURVE",
"170 -20 OFFCURVE",
"452 -20 CURVE SMOOTH",
"714 -20 OFFCURVE",
"784 146 OFFCURVE",
"784 449 CURVE SMOOTH",
"784 562 LINE SMOOTH",
"784 955 OFFCURVE",
"710 1112 OFFCURVE",
"458 1102 CURVE SMOOTH",
"396 1100 OFFCURVE",
"320 1071 OFFCURVE",
"278 1014 CURVE",
"278 1257 LINE SMOOTH",
"278 1558 OFFCURVE",
"306 1638 OFFCURVE",
"433 1638 CURVE SMOOTH",
"562 1638 OFFCURVE",
"567 1553 OFFCURVE",
"567 1251 CURVE",
"735 1251 LINE",
"735 1614 OFFCURVE",
"699 1780 OFFCURVE",
"441 1780 CURVE SMOOTH"
);
},
{
closed = 1;
nodes = (
"587 961 OFFCURVE",
"616 858 OFFCURVE",
"616 556 CURVE SMOOTH",
"616 444 LINE SMOOTH",
"616 185 OFFCURVE",
"580 124 OFFCURVE",
"452 124 CURVE SMOOTH",
"310 124 OFFCURVE",
"278 236 OFFCURVE",
"278 497 CURVE SMOOTH",
"278 902 LINE",
"295 914 OFFCURVE",
"367 961 OFFCURVE",
"458 961 CURVE SMOOTH"
);
}
);
width = 856;
}
);
unicode = 0036;
},
{
glyphname = seven;
lastChange = "2012-12-22 11:46:55 +0000";
layers = (
{
layerId = "7DA9E391-A28A-4B33-B824-B8724EAC872C";
name = "Regular Condensed";
paths = (
{
closed = 1;
nodes = (
"118 1761 LINE",
"118 1625 LINE",
"621 1625 LINE",
"621 1625 OFFCURVE",
"329 955 OFFCURVE",
"253 1 CURVE",
"430 1 LINE",
"487 892 OFFCURVE",
"774 1639 OFFCURVE",
"774 1639 CURVE",
"774 1761 LINE"
);
}
);
width = 856;
}
);
unicode = 0037;
},
{
glyphname = eight;
lastChange = "2012-12-22 11:46:55 +0000";
layers = (
{
layerId = "7DA9E391-A28A-4B33-B824-B8724EAC872C";
name = "Regular Condensed";
paths = (
{
closed = 1;
nodes = (
"203 1780 OFFCURVE",
"126 1649 OFFCURVE",
"126 1346 CURVE SMOOTH",
"126 1149 OFFCURVE",
"160 1006 OFFCURVE",
"264 932 CURVE",
"166 866 OFFCURVE",
"110 654 OFFCURVE",
"110 454 CURVE SMOOTH",
"110 121 OFFCURVE",
"201 -20 OFFCURVE",
"433 -20 CURVE SMOOTH",
"665 -20 OFFCURVE",
"746 121 OFFCURVE",
"746 454 CURVE SMOOTH",
"746 651 OFFCURVE",
"689 869 OFFCURVE",
"597 936 CURVE",
"703 1008 OFFCURVE",
"742 1146 OFFCURVE",
"742 1346 CURVE SMOOTH",
"742 1649 OFFCURVE",
"667 1780 OFFCURVE",
"435 1780 CURVE SMOOTH"
);
},
{
closed = 1;
nodes = (
"517 867 OFFCURVE",
"578 745 OFFCURVE",
"578 457 CURVE SMOOTH",
"578 198 OFFCURVE",
"563 120 OFFCURVE",
"435 120 CURVE SMOOTH",
"305 120 OFFCURVE",
"278 201 OFFCURVE",
"278 453 CURVE SMOOTH",
"278 744 OFFCURVE",
"358 867 OFFCURVE",
"435 867 CURVE SMOOTH"
);
},
{
closed = 1;
nodes = (
"523 1640 OFFCURVE",
"574 1619 OFFCURVE",
"574 1347 CURVE SMOOTH",
"574 1056 OFFCURVE",
"510 990 OFFCURVE",
"433 990 CURVE SMOOTH",
"351 990 OFFCURVE",
"294 1055 OFFCURVE",
"294 1343 CURVE SMOOTH",
"294 1605 OFFCURVE",
"345 1640 OFFCURVE",
"433 1640 CURVE SMOOTH"
);
}
);
width = 856;
}
);
unicode = 0038;
},
{
glyphname = nine;
lastChange = "2012-12-22 11:46:55 +0000";
layers = (
{
layerId = "7DA9E391-A28A-4B33-B824-B8724EAC872C";
name = "Regular Condensed";
paths = (
{
closed = 1;
nodes = (
"99 1780 OFFCURVE",
"67 1554 OFFCURVE",
"67 1251 CURVE SMOOTH",
"67 1219 LINE SMOOTH",
"67 856 OFFCURVE",
"122 662 OFFCURVE",
"365 662 CURVE SMOOTH",
"427 662 OFFCURVE",
"488 678 OFFCURVE",
"523 710 CURVE",
"523 519 LINE SMOOTH",
"523 238 OFFCURVE",
"530 120 OFFCURVE",
"407 120 CURVE SMOOTH",
"288 120 OFFCURVE",
"266 178 OFFCURVE",
"266 510 CURVE",
"105 510 LINE",
"105 147 OFFCURVE",
"165 -20 OFFCURVE",
"393 -20 CURVE SMOOTH",
"651 -20 OFFCURVE",
"691 177 OFFCURVE",
"691 540 CURVE SMOOTH",
"691 1251 LINE SMOOTH",
"691 1554 OFFCURVE",
"663 1780 OFFCURVE",
"381 1780 CURVE SMOOTH"
);
},
{
closed = 1;
nodes = (
"503 1636 OFFCURVE",
"523 1510 OFFCURVE",
"523 1263 CURVE SMOOTH",
"523 830 LINE",
"504 813 OFFCURVE",
"459 793 OFFCURVE",
"385 793 CURVE SMOOTH",
"256 793 OFFCURVE",
"235 896 OFFCURVE",
"235 1198 CURVE SMOOTH",
"235 1264 LINE SMOOTH",
"235 1509 OFFCURVE",
"253 1636 OFFCURVE",
"381 1636 CURVE SMOOTH"
);
}
);
width = 856;
}
);
unicode = 0039;
},
{
glyphname = fraction;
lastChange = "2012-12-22 11:46:55 +0000";
layers = (
{
layerId = "7DA9E391-A28A-4B33-B824-B8724EAC872C";
name = "Regular Condensed";
paths = (
{
closed = 1;
nodes = (
"534 1768 LINE",
"88 0 LINE",
"238 0 LINE",
"685 1768 LINE"
);
}
);
width = 829;
}
);
unicode = 2044;
},
{
glyphname = onehalf;
layers = (
{
components = (
{
name = one;
transform = "{0.751315, 0, 0, 0.751315, 60, 438}";
},
{
name = two;
transform = "{0.751315, 0, 0, 0.751315, 983, 1}";
}
);
layerId = "7DA9E391-A28A-4B33-B824-B8724EAC872C";
name = "Regular Condensed";
paths = (
{
closed = 1;
nodes = (
"944 1768 LINE",
"478 0 LINE",
"608 0 LINE",
"1075 1768 LINE"
);
}
);
width = 1620;
}
);
unicode = 00BD;
},
{
glyphname = onequarter;
layers = (
{
components = (
{
name = one;
transform = "{0.751315, 0, 0, 0.751315, 60, 438}";
},
{
name = four;
transform = "{0.683013, 0, 0, 0.683013, 846, 1}";
}
);
layerId = "7DA9E391-A28A-4B33-B824-B8724EAC872C";
name = "Regular Condensed";
paths = (
{
closed = 1;
nodes = (
"944 1768 LINE",
"478 0 LINE",
"608 0 LINE",
"1075 1768 LINE"
);
}
);
width = 1535;
}
);
unicode = 00BC;
},
{
glyphname = threequarters;
layers = (
{
components = (
{
name = four;
transform = "{0.683013, 0, 0, 0.683013, 866, 1}";
},
{
name = three;
transform = "{0.683013, 0, 0, 0.683013, 60, 565}";
}
);
layerId = "7DA9E391-A28A-4B33-B824-B8724EAC872C";
name = "Regular Condensed";
paths = (
{
closed = 1;
nodes = (
"1007 1768 LINE",
"541 0 LINE",
"671 0 LINE",
"1138 1768 LINE"
);
}
);
width = 1555;
}
);
unicode = 00BE;
},
{
glyphname = asterisk;
lastChange = "2012-12-22 11:59:48 +0000";
layers = (
{
layerId = "7DA9E391-A28A-4B33-B824-B8724EAC872C";
name = "Regular Condensed";
paths = (
{
closed = 1;
nodes = (
"409 1760 LINE",
"435 1489 LINE",
"205 1654 LINE",
"133 1530 LINE",
"385 1409 LINE",
"140 1280 LINE",
"212 1155 LINE",
"435 1328 LINE",
"409 1050 LINE",
"551 1050 LINE",
"530 1324 LINE",
"755 1147 LINE",
"827 1271 LINE",
"575 1409 LINE",
"827 1539 LINE",
"755 1663 LINE",
"530 1491 LINE",
"551 1760 LINE"
);
}
);
width = 960;
}
);
unicode = 002A;
},
{
glyphname = backslash;
lastChange = "2012-12-22 11:46:55 +0000";
layers = (
{
layerId = "7DA9E391-A28A-4B33-B824-B8724EAC872C";
name = "Regular Condensed";
paths = (
{
closed = 1;
nodes = (
"127 1761 LINE",
"538 0 LINE",
"683 0 LINE",
"273 1761 LINE"
);
}
);
width = 868;
}
);
unicode = 005C;
},
{
glyphname = bullet;
lastChange = "2012-12-22 11:56:04 +0000";
layers = (
{
layerId = "7DA9E391-A28A-4B33-B824-B8724EAC872C";
name = "Regular Condensed";
paths = (
{
closed = 1;
nodes = (
"290 979 OFFCURVE",
"217 897 OFFCURVE",
"217 741 CURVE SMOOTH",
"217 585 OFFCURVE",
"290 503 OFFCURVE",
"430 503 CURVE SMOOTH",
"571 503 OFFCURVE",
"644 585 OFFCURVE",
"644 741 CURVE SMOOTH",
"644 897 OFFCURVE",
"571 979 OFFCURVE",
"430 979 CURVE SMOOTH"
);
}
);
width = 861;
}
);
unicode = 2022;
},
{
glyphname = colon;
lastChange = "2012-12-22 11:46:55 +0000";
layers = (
{
layerId = "7DA9E391-A28A-4B33-B824-B8724EAC872C";
name = "Regular Condensed";
paths = (
{
closed = 1;
nodes = (
"112 1307 LINE",
"112 1009 LINE",
"443 1009 LINE",
"443 1307 LINE"
);
},
{
closed = 1;
nodes = (
"112 568 LINE",
"112 270 LINE",
"443 270 LINE",
"443 568 LINE"
);
}
);
width = 555;
}
);
unicode = 003A;
},
{
glyphname = comma;
lastChange = "2012-12-22 11:49:19 +0000";
layers = (
{
layerId = "7DA9E391-A28A-4B33-B824-B8724EAC872C";
name = "Regular Condensed";
paths = (
{
closed = 1;
nodes = (
"120 214 LINE",
"120 0 LINE",
"243 0 LINE",
"168 -348 LINE",
"259 -348 LINE",
"360 9 LINE",
"360 214 LINE"
);
}
);
width = 445;
}
);
unicode = 002C;
},
{
glyphname = exclam;
lastChange = "2012-12-22 11:46:55 +0000";
layers = (
{
layerId = "7DA9E391-A28A-4B33-B824-B8724EAC872C";
name = "Regular Condensed";
paths = (
{
closed = 1;
nodes = (
"166 1760 LINE",
"233 377 LINE",
"301 377 LINE",
"370 1760 LINE"
);
},
{
closed = 1;
nodes = (
"167 211 LINE",
"167 0 LINE",
"365 0 LINE",
"365 211 LINE"
);
}
);
width = 536;
}
);
unicode = 0021;
},
{
glyphname = numbersign;
lastChange = "2012-12-22 11:46:55 +0000";
layers = (
{
layerId = "7DA9E391-A28A-4B33-B824-B8724EAC872C";
name = "Regular Condensed";
paths = (
{
closed = 1;
nodes = (
"908 1761 LINE",
"785 1149 LINE",
"574 1149 LINE",
"697 1761 LINE",
"553 1761 LINE",
"432 1149 LINE",
"221 1149 LINE",
"221 1039 LINE",
"410 1039 LINE",
"356 765 LINE",
"174 765 LINE",
"174 655 LINE",
"334 655 LINE",
"205 0 LINE",
"348 0 LINE",
"476 655 LINE",
"688 655 LINE",
"560 0 LINE",
"703 0 LINE",
"833 655 LINE",
"1041 655 LINE",
"1041 765 LINE",
"855 765 LINE",
"909 1039 LINE",
"1088 1039 LINE",
"1088 1149 LINE",
"931 1149 LINE",
"1052 1761 LINE"
);
},
{
closed = 1;
nodes = (
"712 763 LINE",
"497 763 LINE",
"551 1034 LINE",
"765 1034 LINE"
);
}
);
width = 1288;
}
);
unicode = 0023;
},
{
glyphname = period;
lastChange = "2012-12-22 11:46:55 +0000";
layers = (
{
layerId = "7DA9E391-A28A-4B33-B824-B8724EAC872C";
name = "Regular Condensed";
paths = (
{
closed = 1;
nodes = (
"185 168 LINE",
"185 0 LINE",
"328 0 LINE",
"328 168 LINE"
);
}
);
width = 532;
}
);
unicode = 002E;
},
{
glyphname = periodcentered;
lastChange = "2012-12-22 11:47:01 +0000";
layers = (
{
anchors = (
{
name = _center;
position = "{245, 876}";
}
);
layerId = "7DA9E391-A28A-4B33-B824-B8724EAC872C";
name = "Regular Condensed";
paths = (
{
closed = 1;
nodes = (
"158 966 LINE",
"158 780 LINE",
"338 780 LINE",
"338 966 LINE"
);
}
);
width = 480;
}
);
unicode = 00B7;
},
{
glyphname = question;
lastChange = "2012-12-22 11:47:01 +0000";
layers = (
{
layerId = "7DA9E391-A28A-4B33-B824-B8724EAC872C";
name = "Regular Condensed";
paths = (
{
closed = 1;
nodes = (
"133 1782 OFFCURVE",
"152 1523 OFFCURVE",
"152 1367 CURVE SMOOTH",
"152 1160 LINE",
"320 1160 LINE",
"320 1369 LINE SMOOTH",
"320 1578 OFFCURVE",
"321 1638 OFFCURVE",
"408 1638 CURVE SMOOTH",
"488 1638 OFFCURVE",
"486 1571 OFFCURVE",
"486 1373 CURVE SMOOTH",
"486 1029 OFFCURVE",
"486 898 OFFCURVE",
"232 810 CURVE",
"232 494 LINE",
"375 494 LINE",
"375 739 LINE",
"595 801 OFFCURVE",
"654 963 OFFCURVE",
"654 1309 CURVE SMOOTH",
"654 1592 OFFCURVE",
"653 1782 OFFCURVE",
"404 1782 CURVE SMOOTH"
);
},
{
closed = 1;
nodes = (
"232 299 LINE",
"232 1 LINE",
"375 1 LINE",
"375 299 LINE"
);
}
);
width = 738.287;
}
);
unicode = 003F;
},
{
glyphname = quotedbl;
lastChange = "2012-12-22 11:46:55 +0000";
layers = (
{
layerId = "7DA9E391-A28A-4B33-B824-B8724EAC872C";
name = "Regular Condensed";
paths = (
{
closed = 1;
nodes = (
"535 1761 LINE",
"595 1125 LINE",
"641 1125 LINE",
"706 1761 LINE"
);
},
{
closed = 1;
nodes = (
"251 1761 LINE",
"311 1125 LINE",
"357 1125 LINE",
"422 1761 LINE"
);
}
);
width = 944;
}
);
unicode = 0022;
},
{
glyphname = quotesingle;
lastChange = "2012-12-22 11:46:55 +0000";
layers = (
{
layerId = "7DA9E391-A28A-4B33-B824-B8724EAC872C";
name = "Regular Condensed";
paths = (
{
closed = 1;
nodes = (
"120 1761 LINE",
"180 1125 LINE",
"226 1125 LINE",
"291 1761 LINE"
);
}
);
width = 407;
}
);
unicode = 0027;
},
{
glyphname = semicolon;
lastChange = "2012-12-22 11:50:07 +0000";
layers = (
{
layerId = "7DA9E391-A28A-4B33-B824-B8724EAC872C";
name = "Regular Condensed";
paths = (
{
closed = 1;
nodes = (
"137 1224 LINE",
"137 960 LINE",
"406 960 LINE",
"406 1224 LINE"
);
},
{
closed = 1;
nodes = (
"150 534 LINE",
"150 299 LINE",
"284 299 LINE",
"193 -100 LINE",
"306 -100 LINE",
"424 308 LINE",
"424 534 LINE"
);
}
);
width = 561;
}
);
unicode = 003B;
},
{
glyphname = slash;
lastChange = "2012-12-22 11:46:55 +0000";
layers = (
{
layerId = "7DA9E391-A28A-4B33-B824-B8724EAC872C";
name = "Regular Condensed";
paths = (
{
closed = 1;
nodes = (
"534 1768 LINE",
"88 0 LINE",
"238 0 LINE",
"685 1768 LINE"
);
}
);
width = 756;
}
);
unicode = 002F;
},
{
glyphname = underscore;
lastChange = "2012-12-22 12:00:35 +0000";
layers = (
{
layerId = "7DA9E391-A28A-4B33-B824-B8724EAC872C";
name = "Regular Condensed";
paths = (
{
closed = 1;
nodes = (
"48 -58 LINE",
"48 -189 LINE",
"699 -189 LINE",
"699 -58 LINE"
);
}
);
width = 748;
}
);
unicode = 005F;
},
{
glyphname = braceleft;
lastChange = "2012-12-22 11:54:09 +0000";
layers = (
{
layerId = "7DA9E391-A28A-4B33-B824-B8724EAC872C";
name = "Regular Condensed";
paths = (
{
closed = 1;
nodes = (
"570 1781 LINE SMOOTH",
"380 1781 OFFCURVE",
"324 1704 OFFCURVE",
"324 1443 CURVE SMOOTH",
"324 1168 LINE SMOOTH",
"324 961 OFFCURVE",
"308 934 OFFCURVE",
"185 934 CURVE",
"185 726 LINE",
"308 726 OFFCURVE",
"324 699 OFFCURVE",
"324 492 CURVE SMOOTH",
"324 217 LINE SMOOTH",
"324 -44 OFFCURVE",
"380 -121 OFFCURVE",
"570 -121 CURVE SMOOTH",
"630 -121 LINE",
"630 26 LINE",
"507 26 OFFCURVE",
"491 49 OFFCURVE",
"491 230 CURVE SMOOTH",
"491 476 LINE SMOOTH",
"491 745 OFFCURVE",
"472 785 OFFCURVE",
"321 830 CURVE",
"472 875 OFFCURVE",
"491 915 OFFCURVE",
"491 1184 CURVE SMOOTH",
"491 1430 LINE SMOOTH",
"491 1611 OFFCURVE",
"507 1634 OFFCURVE",
"630 1634 CURVE",
"630 1781 LINE"
);
}
);
width = 798;
}
);
unicode = 007B;
},
{
glyphname = braceright;
lastChange = "2012-12-22 11:54:34 +0000";
layers = (
{
layerId = "7DA9E391-A28A-4B33-B824-B8724EAC872C";
name = "Regular Condensed";
paths = (
{
closed = 1;
nodes = (
"185 1634 LINE",
"308 1634 OFFCURVE",
"324 1611 OFFCURVE",
"324 1430 CURVE",
"324 1184 LINE SMOOTH",
"324 915 OFFCURVE",
"343 875 OFFCURVE",
"494 830 CURVE",
"343 785 OFFCURVE",
"324 745 OFFCURVE",
"324 476 CURVE",
"324 230 LINE SMOOTH",
"324 49 OFFCURVE",
"308 26 OFFCURVE",
"185 26 CURVE",
"185 -121 LINE",
"245 -121 LINE SMOOTH",
"435 -121 OFFCURVE",
"491 -44 OFFCURVE",
"491 217 CURVE",
"491 492 LINE SMOOTH",
"491 699 OFFCURVE",
"507 726 OFFCURVE",
"630 726 CURVE",
"630 934 LINE",
"507 934 OFFCURVE",
"491 961 OFFCURVE",
"491 1168 CURVE",
"491 1443 LINE SMOOTH",
"491 1704 OFFCURVE",
"435 1781 OFFCURVE",
"245 1781 CURVE",
"185 1781 LINE"
);
}
);
width = 798;
}
);
unicode = 007D;
},
{
glyphname = bracketleft;
lastChange = "2012-12-22 11:46:55 +0000";
layers = (
{
layerId = "7DA9E391-A28A-4B33-B824-B8724EAC872C";
name = "Regular Condensed";
paths = (
{
closed = 1;
nodes = (
"241 1761 LINE",
"241 0 LINE",
"621 0 LINE",
"621 130 LINE",
"409 130 LINE",
"409 1631 LINE",
"621 1631 LINE",
"621 1761 LINE"
);
}
);
width = 764;
}
);
unicode = 005B;
},
{
glyphname = bracketright;
lastChange = "2012-12-22 11:46:55 +0000";
layers = (
{
layerId = "7DA9E391-A28A-4B33-B824-B8724EAC872C";
name = "Regular Condensed";
paths = (
{
closed = 1;
nodes = (
"186 1761 LINE",
"186 1631 LINE",
"398 1631 LINE",
"398 130 LINE",
"186 130 LINE",
"186 0 LINE",
"566 0 LINE",
"566 1761 LINE"
);
}
);
width = 764;
}
);
unicode = 005D;
},
{
glyphname = parenleft;
lastChange = "2012-12-22 11:46:55 +0000";
layers = (
{
layerId = "7DA9E391-A28A-4B33-B824-B8724EAC872C";
name = "Regular Condensed";
paths = (
{
closed = 1;
nodes = (
"192 1804 OFFCURVE",
"132 1749 OFFCURVE",
"132 1386 CURVE SMOOTH",
"132 313 LINE SMOOTH",
"132 -50 OFFCURVE",
"192 -105 OFFCURVE",
"439 -105 CURVE",
"439 22 LINE",
"319 22 OFFCURVE",
"300 23 OFFCURVE",
"300 309 CURVE SMOOTH",
"300 1390 LINE SMOOTH",
"300 1676 OFFCURVE",
"319 1677 OFFCURVE",
"439 1677 CURVE",
"439 1804 LINE"
);
}
);
width = 535;
}
);
unicode = 0028;
},
{
glyphname = parenright;
lastChange = "2012-12-22 11:46:55 +0000";
layers = (
{
layerId = "7DA9E391-A28A-4B33-B824-B8724EAC872C";
name = "Regular Condensed";
paths = (
{
closed = 1;
nodes = (
"96 1677 LINE",
"216 1677 OFFCURVE",
"235 1676 OFFCURVE",
"235 1390 CURVE SMOOTH",
"235 309 LINE SMOOTH",
"235 23 OFFCURVE",
"216 22 OFFCURVE",
"96 22 CURVE",
"96 -105 LINE",
"343 -105 OFFCURVE",
"403 -50 OFFCURVE",
"403 313 CURVE SMOOTH",
"403 1386 LINE SMOOTH",
"403 1749 OFFCURVE",
"343 1804 OFFCURVE",
"96 1804 CURVE"
);
}
);
width = 535;
}
);
unicode = 0029;
},
{
glyphname = emdash;
lastChange = "2012-12-22 11:46:55 +0000";
layers = (
{
layerId = "7DA9E391-A28A-4B33-B824-B8724EAC872C";
name = "Regular Condensed";
paths = (
{
closed = 1;
nodes = (
"60 741 LINE",
"60 509 LINE",
"1092 509 LINE",
"1092 741 LINE"
);
}
);
width = 1153;
}
);
unicode = 2014;
},
{
glyphname = endash;
lastChange = "2012-12-22 11:46:55 +0000";
layers = (
{
layerId = "7DA9E391-A28A-4B33-B824-B8724EAC872C";
name = "Regular Condensed";
paths = (
{
closed = 1;
nodes = (
"120 741 LINE",
"120 509 LINE",
"636 509 LINE",
"636 741 LINE"
);
}
);
width = 756;
}
);
unicode = 2013;
},
{
glyphname = hyphen;
lastChange = "2012-12-22 11:46:55 +0000";
layers = (
{
layerId = "7DA9E391-A28A-4B33-B824-B8724EAC872C";
name = "Regular Condensed";
paths = (
{
closed = 1;
nodes = (
"88 938 LINE",
"88 826 LINE",
"524 826 LINE",
"524 938 LINE"
);
}
);
width = 696;
}
);
unicode = 002D;
},
{
glyphname = uni00AD;
lastChange = "2012-12-22 11:46:55 +0000";
layers = (
{
layerId = "7DA9E391-A28A-4B33-B824-B8724EAC872C";
name = "Regular Condensed";
paths = (
{
closed = 1;
nodes = (
"90 741 LINE",
"90 509 LINE",
"606 509 LINE",
"606 741 LINE"
);
}
);
width = 696;
}
);
unicode = 00AD;
},
{
glyphname = guillemotleft;
lastChange = "2012-12-22 11:51:37 +0000";
layers = (
{
layerId = "7DA9E391-A28A-4B33-B824-B8724EAC872C";
name = "Regular Condensed";
paths = (
{
closed = 1;
nodes = (
"606 809 LINE",
"606 685 LINE",
"1076 400 LINE",
"1076 578 LINE",
"764 749 LINE",
"1076 911 LINE",
"1076 1080 LINE"
);
},
{
closed = 1;
nodes = (
"78 809 LINE",
"78 685 LINE",
"548 400 LINE",
"548 578 LINE",
"236 749 LINE",
"548 911 LINE",
"548 1080 LINE"
);
}
);
width = 1304;
}
);
unicode = 00AB;
},
{
glyphname = guillemotright;
lastChange = "2012-12-22 11:51:54 +0000";
layers = (
{
layerId = "7DA9E391-A28A-4B33-B824-B8724EAC872C";
name = "Regular Condensed";
paths = (
{
closed = 1;
nodes = (
"186 911 LINE",
"498 749 LINE",
"186 578 LINE",
"186 400 LINE",
"656 685 LINE",
"656 809 LINE",
"186 1080 LINE"
);
},
{
closed = 1;
nodes = (
"714 911 LINE",
"1026 749 LINE",
"714 578 LINE",
"714 400 LINE",
"1184 685 LINE",
"1184 809 LINE",
"714 1080 LINE"
);
}
);
width = 1304;
}
);
unicode = 00BB;
},
{
glyphname = guilsinglleft;
lastChange = "2012-12-22 11:46:55 +0000";
layers = (
{
layerId = "7DA9E391-A28A-4B33-B824-B8724EAC872C";
name = "Regular Condensed";
paths = (
{
closed = 1;
nodes = (
"78 809 LINE",
"78 685 LINE",
"548 400 LINE",
"548 578 LINE",
"236 749 LINE",
"548 911 LINE",
"548 1080 LINE"
);
}
);
width = 606;
}
);
unicode = 2039;
},
{
glyphname = guilsinglright;
lastChange = "2012-12-22 11:46:55 +0000";
layers = (
{
layerId = "7DA9E391-A28A-4B33-B824-B8724EAC872C";
name = "Regular Condensed";
paths = (
{
closed = 1;
nodes = (
"162 911 LINE",
"474 749 LINE",
"162 578 LINE",
"162 400 LINE",
"632 685 LINE",
"632 809 LINE",
"162 1080 LINE"
);
}
);
width = 727;
}
);
unicode = 203A;
},
{
glyphname = quotedblbase;
lastChange = "2012-12-22 11:46:55 +0000";
layers = (
{
layerId = "7DA9E391-A28A-4B33-B824-B8724EAC872C";
name = "Regular Condensed";
paths = (
{
closed = 1;
nodes = (
"626 215 LINE",
"626 0 LINE",
"770 0 LINE",
"679 -419 LINE",
"792 -419 LINE",
"910 9 LINE",
"910 215 LINE"
);
},
{
closed = 1;
nodes = (
"176 215 LINE",
"176 0 LINE",
"320 0 LINE",
"229 -419 LINE",
"342 -419 LINE",
"460 9 LINE",
"460 215 LINE"
);
}
);
width = 1016;
}
);
unicode = 201E;
},
{
glyphname = quotedblleft;
lastChange = "2012-12-22 11:46:55 +0000";
layers = (
{
layerId = "7DA9E391-A28A-4B33-B824-B8724EAC872C";
name = "Regular Condensed";
paths = (
{
closed = 1;
nodes = (
"738 1782 LINE",
"620 1354 LINE",
"620 1148 LINE",
"904 1148 LINE",
"904 1363 LINE",
"760 1363 LINE",
"851 1782 LINE"
);
},
{
closed = 1;
nodes = (
"288 1782 LINE",
"170 1354 LINE",
"170 1148 LINE",
"454 1148 LINE",
"454 1363 LINE",
"310 1363 LINE",
"401 1782 LINE"
);
}
);
width = 1030;
}
);
unicode = 201C;
},
{
glyphname = quotedblright;
lastChange = "2012-12-22 11:46:55 +0000";
layers = (
{
layerId = "7DA9E391-A28A-4B33-B824-B8724EAC872C";
name = "Regular Condensed";
paths = (
{
closed = 1;
nodes = (
"635 1782 LINE",
"635 1567 LINE",
"779 1567 LINE",
"688 1148 LINE",
"801 1148 LINE",
"919 1576 LINE",
"919 1782 LINE"
);
},
{
closed = 1;
nodes = (
"185 1782 LINE",
"185 1567 LINE",
"329 1567 LINE",
"238 1148 LINE",
"351 1148 LINE",
"469 1576 LINE",
"469 1782 LINE"
);
}
);
width = 1077;
}
);
unicode = 201D;
},
{
glyphname = quoteleft;
lastChange = "2012-12-22 11:46:55 +0000";
layers = (
{
layerId = "7DA9E391-A28A-4B33-B824-B8724EAC872C";
name = "Regular Condensed";
paths = (
{
closed = 1;
nodes = (
"277 1782 LINE",
"159 1354 LINE",
"159 1148 LINE",
"443 1148 LINE",
"443 1363 LINE",
"299 1363 LINE",
"390 1782 LINE"
);
}
);
width = 595;
}
);
unicode = 2018;
},
{
glyphname = quoteright;
lastChange = "2012-12-22 11:46:55 +0000";
layers = (
{
anchors = (
{
name = _caron;
position = "{83, 1162}";
}
);
layerId = "7DA9E391-A28A-4B33-B824-B8724EAC872C";
name = "Regular Condensed";
paths = (
{
closed = 1;
nodes = (
"179 1782 LINE",
"179 1567 LINE",
"323 1567 LINE",
"232 1148 LINE",
"345 1148 LINE",
"463 1576 LINE",
"463 1782 LINE"
);
}
);
width = 595;
}
);
unicode = 2019;
},
{
glyphname = quotesinglbase;
lastChange = "2012-12-22 11:46:55 +0000";
layers = (
{
layerId = "7DA9E391-A28A-4B33-B824-B8724EAC872C";
name = "Regular Condensed";
paths = (
{
closed = 1;
nodes = (
"108 215 LINE",
"108 0 LINE",
"252 0 LINE",
"161 -419 LINE",
"274 -419 LINE",
"392 9 LINE",
"392 215 LINE"
);
}
);
width = 484;
}
);
unicode = 201A;
},
{
glyphname = .notdef;
lastChange = "2012-12-22 11:46:55 +0000";
layers = (
{
layerId = "7DA9E391-A28A-4B33-B824-B8724EAC872C";
name = "Regular Condensed";
paths = (
{
closed = 1;
nodes = (
"102 1092 LINE",
"102 0 LINE",
"922 0 LINE",
"922 1092 LINE"
);
},
{
closed = 1;
nodes = (
"820 102 LINE",
"204 102 LINE",
"204 990 LINE",
"820 990 LINE"
);
}
);
width = 1024;
}
);
},
{
glyphname = florin;
lastChange = "2012-12-22 11:46:55 +0000";
layers = (
{
layerId = "7DA9E391-A28A-4B33-B824-B8724EAC872C";
name = "Regular Condensed";
paths = (
{
closed = 1;
nodes = (
"369 1786 OFFCURVE",
"306 1703 OFFCURVE",
"306 1539 CURVE SMOOTH",
"306 1253 LINE",
"107 1253 LINE",
"107 1131 LINE",
"306 1131 LINE",
"306 305 LINE SMOOTH",
"306 169 OFFCURVE",
"289 137 OFFCURVE",
"169 137 CURVE SMOOTH",
"153 137 OFFCURVE",
"135 138 OFFCURVE",
"115 139 CURVE",
"115 8 LINE",
"170 -6 OFFCURVE",
"217 -13 OFFCURVE",
"258 -13 CURVE SMOOTH",
"398 -13 OFFCURVE",
"462 67 OFFCURVE",
"462 221 CURVE SMOOTH",
"462 1131 LINE",
"665 1131 LINE",
"665 1253 LINE",
"462 1253 LINE",
"462 1515 LINE SMOOTH",
"462 1604 OFFCURVE",
"483 1643 OFFCURVE",
"544 1643 CURVE SMOOTH",
"571 1643 OFFCURVE",
"607 1635 OFFCURVE",
"652 1621 CURVE",
"652 1752 LINE",
"591 1775 OFFCURVE",
"537 1786 OFFCURVE",
"492 1786 CURVE SMOOTH"
);
}
);
width = 767;
}
);
unicode = 0192;
},
{
glyphname = cent;
lastChange = "2012-12-22 11:47:01 +0000";
layers = (
{
components = (
{
name = c;
transform = "{1, 0, 0, 1, 0, 0}";
}
);
layerId = "7DA9E391-A28A-4B33-B824-B8724EAC872C";
name = "Regular Condensed";
paths = (
{
closed = 1;
nodes = (
"348 1768 LINE",
"348 1513 LINE",
"461 1511 LINE",
"461 1768 LINE"
);
},
{
closed = 1;
nodes = (
"348 6 LINE",
"348 -249 LINE",
"461 -249 LINE",
"461 6 LINE"
);
}
);
width = 788;
}
);
unicode = 00A2;
},
{
glyphname = currency;
lastChange = "2012-12-22 11:46:55 +0000";
layers = (
{
layerId = "7DA9E391-A28A-4B33-B824-B8724EAC872C";
name = "Regular Condensed";
paths = (
{
closed = 1;
nodes = (
"797 1331 LINE",
"732 1367 OFFCURVE",
"659 1385 OFFCURVE",
"579 1385 CURVE SMOOTH",
"498 1385 OFFCURVE",
"426 1367 OFFCURVE",
"361 1330 CURVE",
"274 1418 LINE",
"125 1268 LINE",
"215 1178 LINE",
"180 1113 OFFCURVE",
"163 1042 OFFCURVE",
"163 964 CURVE SMOOTH",
"163 887 OFFCURVE",
"181 815 OFFCURVE",
"216 750 CURVE",
"125 659 LINE",
"274 509 LINE",
"363 598 LINE",
"424 563 OFFCURVE",
"496 545 OFFCURVE",
"579 545 CURVE SMOOTH",
"661 545 OFFCURVE",
"733 562 OFFCURVE",
"795 597 CURVE",
"884 509 LINE",
"1034 658 LINE",
"944 748 LINE",
"980 813 OFFCURVE",
"998 885 OFFCURVE",
"998 964 CURVE SMOOTH",
"998 1043 OFFCURVE",
"980 1114 OFFCURVE",
"944 1179 CURVE",
"1034 1269 LINE",
"884 1418 LINE"
);
},
{
closed = 1;
nodes = (
"708 1186 OFFCURVE",
"788 1092 OFFCURVE",
"788 966 CURVE SMOOTH",
"788 842 OFFCURVE",
"706 741 OFFCURVE",
"579 741 CURVE SMOOTH",
"452 741 OFFCURVE",
"371 840 OFFCURVE",
"371 964 CURVE SMOOTH",
"371 1087 OFFCURVE",
"453 1186 OFFCURVE",
"579 1186 CURVE SMOOTH"
);
}
);
width = 1159;
}
);
unicode = 00A4;
},
{
glyphname = dollar;
lastChange = "2012-12-22 11:47:01 +0000";
layers = (
{
components = (
{
name = s;
transform = "{1, 0, 0, 1, 0, 2}";
}
);
layerId = "7DA9E391-A28A-4B33-B824-B8724EAC872C";
name = "Regular Condensed";
paths = (
{
closed = 1;
nodes = (
"380 1760 LINE",
"380 1474 LINE",
"493 1474 LINE",
"493 1760 LINE"
);
},
{
closed = 1;
nodes = (
"399 23 LINE",
"399 -263 LINE",
"512 -263 LINE",
"512 23 LINE"
);
}
);
width = 867;
}
);
unicode = 0024;
},
{
glyphname = sterling;
lastChange = "2012-12-22 11:46:55 +0000";
layers = (
{
layerId = "7DA9E391-A28A-4B33-B824-B8724EAC872C";
name = "Regular Condensed";
paths = (
{
closed = 1;
nodes = (
"272 1781 OFFCURVE",
"174 1628 OFFCURVE",
"174 1399 CURVE SMOOTH",
"174 1400 OFFCURVE",
"228 1217 OFFCURVE",
"308 942 CURVE",
"97 942 LINE",
"97 825 LINE",
"338 825 LINE",
"350 765 OFFCURVE",
"356 695 OFFCURVE",
"356 633 CURVE SMOOTH",
"356 323 OFFCURVE",
"246 177 OFFCURVE",
"82 105 CURVE",
"82 0 LINE",
"914 0 LINE",
"914 126 LINE",
"316 126 LINE",
"468 200 OFFCURVE",
"516 391 OFFCURVE",
"516 642 CURVE SMOOTH",
"516 699 OFFCURVE",
"510 765 OFFCURVE",
"502 825 CURVE",
"831 825 LINE",
"831 942 LINE",
"470 942 LINE",
"378 1258 OFFCURVE",
"334 1409 OFFCURVE",
"334 1414 CURVE SMOOTH",
"334 1586 OFFCURVE",
"433 1640 OFFCURVE",
"581 1640 CURVE SMOOTH",
"711 1640 OFFCURVE",
"772 1541 OFFCURVE",
"772 1393 CURVE SMOOTH",
"772 1246 LINE",
"923 1246 LINE",
"923 1381 LINE SMOOTH",
"923 1653 OFFCURVE",
"787 1781 OFFCURVE",
"584 1781 CURVE SMOOTH"
);
}
);
width = 1077;
}
);
unicode = 00A3;
},
{
glyphname = yen;
lastChange = "2012-12-22 11:47:01 +0000";
layers = (
{
components = (
{
name = Y;
transform = "{1, 0, 0, 1, 0, 0}";
}
);
layerId = "7DA9E391-A28A-4B33-B824-B8724EAC872C";
name = "Regular Condensed";
paths = (
{
closed = 1;
nodes = (
"80 815 LINE",
"80 721 LINE",
"400 721 LINE",
"400 532 LINE",
"80 532 LINE",
"80 438 LINE",
"756 438 LINE",
"756 532 LINE",
"479 532 LINE",
"479 721 LINE",
"756 721 LINE",
"756 815 LINE"
);
}
);
width = 828;
}
);
unicode = 00A5;
},
{
glyphname = approxequal;
lastChange = "2012-12-22 12:01:20 +0000";
layers = (
{
layerId = "7DA9E391-A28A-4B33-B824-B8724EAC872C";
name = "Regular Condensed";
paths = (
{
closed = 1;
nodes = (
"821 678 OFFCURVE",
"787 638 OFFCURVE",
"745 633 CURVE SMOOTH",
"681 633 OFFCURVE",
"451 715 OFFCURVE",
"347 715 CURVE SMOOTH",
"254 715 OFFCURVE",
"179 647 OFFCURVE",
"128 516 CURVE",
"263 440 LINE",
"289 501 OFFCURVE",
"322 533 OFFCURVE",
"358 533 CURVE SMOOTH",
"464 533 OFFCURVE",
"659 449 OFFCURVE",
"773 449 CURVE SMOOTH",
"874 449 OFFCURVE",
"950 538 OFFCURVE",
"993 708 CURVE",
"843 750 LINE"
);
},
{
closed = 1;
nodes = (
"821 1095 OFFCURVE",
"787 1055 OFFCURVE",
"745 1050 CURVE SMOOTH",
"681 1050 OFFCURVE",
"451 1132 OFFCURVE",
"347 1132 CURVE SMOOTH",
"254 1132 OFFCURVE",
"179 1064 OFFCURVE",
"128 933 CURVE",
"263 857 LINE",
"289 918 OFFCURVE",
"322 950 OFFCURVE",
"358 950 CURVE SMOOTH",
"464 950 OFFCURVE",
"659 866 OFFCURVE",
"773 866 CURVE SMOOTH",
"874 866 OFFCURVE",
"950 955 OFFCURVE",
"993 1125 CURVE",
"843 1167 LINE"
);
}
);
width = 1117;
}
);
unicode = 2248;
},
{
glyphname = asciitilde;
lastChange = "2012-12-22 12:00:56 +0000";
layers = (
{
layerId = "7DA9E391-A28A-4B33-B824-B8724EAC872C";
name = "Regular Condensed";
paths = (
{
closed = 1;
nodes = (
"811 1075 OFFCURVE",
"777 1035 OFFCURVE",
"735 1030 CURVE SMOOTH",
"671 1030 OFFCURVE",
"441 1112 OFFCURVE",
"337 1112 CURVE SMOOTH",
"244 1112 OFFCURVE",
"169 1044 OFFCURVE",
"118 913 CURVE",
"253 837 LINE",
"279 898 OFFCURVE",
"312 930 OFFCURVE",
"348 930 CURVE SMOOTH",
"454 930 OFFCURVE",
"649 846 OFFCURVE",
"763 846 CURVE SMOOTH",
"864 846 OFFCURVE",
"940 935 OFFCURVE",
"983 1105 CURVE",
"833 1147 LINE"
);
}
);
width = 1117;
}
);
unicode = 007E;
},
{
glyphname = divide;
lastChange = "2012-12-22 11:46:55 +0000";
layers = (
{
layerId = "7DA9E391-A28A-4B33-B824-B8724EAC872C";
name = "Regular Condensed";
paths = (
{
closed = 1;
nodes = (
"94 870 LINE",
"94 638 LINE",
"710 638 LINE",
"710 870 LINE"
);
},
{
closed = 1;
nodes = (
"253 535 LINE",
"253 237 LINE",
"551 237 LINE",
"551 535 LINE"
);
},
{
closed = 1;
nodes = (
"253 1274 LINE",
"253 976 LINE",
"551 976 LINE",
"551 1274 LINE"
);
}
);
width = 804;
}
);
unicode = 00F7;
},
{
glyphname = equal;
lastChange = "2012-12-22 11:46:55 +0000";
layers = (
{
layerId = "7DA9E391-A28A-4B33-B824-B8724EAC872C";
name = "Regular Condensed";
paths = (
{
closed = 1;
nodes = (
"104 1033 LINE",
"104 892 LINE",
"618 892 LINE",
"618 1033 LINE"
);
},
{
closed = 1;
nodes = (
"104 734 LINE",
"104 593 LINE",
"618 593 LINE",
"618 734 LINE"
);
}
);
width = 722;
}
);
unicode = 003D;
},
{
glyphname = greater;
lastChange = "2012-12-22 11:46:55 +0000";
layers = (
{
layerId = "7DA9E391-A28A-4B33-B824-B8724EAC872C";
name = "Regular Condensed";
paths = (
{
closed = 1;
nodes = (
"85 1048 LINE",
"541 749 LINE",
"85 465 LINE",
"85 280 LINE",
"663 671 LINE",
"663 831 LINE",
"85 1226 LINE"
);
}
);
width = 730;
}
);
unicode = 003E;
},
{
glyphname = greaterequal;
lastChange = "2012-12-22 11:46:55 +0000";
layers = (
{
layerId = "7DA9E391-A28A-4B33-B824-B8724EAC872C";
name = "Regular Condensed";
paths = (
{
closed = 1;
nodes = (
"101 1041 LINE",
"557 757 LINE",
"101 458 LINE",
"101 280 LINE",
"679 675 LINE",
"679 835 LINE",
"101 1226 LINE"
);
},
{
closed = 1;
nodes = (
"96 122 LINE",
"96 0 LINE",
"642 0 LINE",
"642 122 LINE"
);
}
);
width = 781;
}
);
unicode = 2265;
},
{
glyphname = infinity;
lastChange = "2012-12-22 11:46:55 +0000";
layers = (
{
layerId = "7DA9E391-A28A-4B33-B824-B8724EAC872C";
name = "Regular Condensed";
paths = (
{
closed = 1;
nodes = (
"814 1041 OFFCURVE",
"723 989 OFFCURVE",
"639 885 CURVE",
"554 980 OFFCURVE",
"465 1028 OFFCURVE",
"370 1028 CURVE SMOOTH",
"200 1028 OFFCURVE",
"108 920 OFFCURVE",
"108 744 CURVE SMOOTH",
"108 564 OFFCURVE",
"196 452 OFFCURVE",
"370 452 CURVE SMOOTH",
"482 452 OFFCURVE",
"583 522 OFFCURVE",
"639 585 CURVE",
"696 512 OFFCURVE",
"787 439 OFFCURVE",
"912 439 CURVE SMOOTH",
"1090 439 OFFCURVE",
"1182 559 OFFCURVE",
"1182 744 CURVE SMOOTH",
"1182 927 OFFCURVE",
"1088 1041 OFFCURVE",
"912 1041 CURVE SMOOTH"
);
},
{
closed = 1;
nodes = (
"481 810 OFFCURVE",
"529 787 OFFCURVE",
"577 740 CURVE",
"528 693 OFFCURVE",
"480 669 OFFCURVE",
"433 669 CURVE SMOOTH",
"374 669 OFFCURVE",
"344 693 OFFCURVE",
"344 740 CURVE SMOOTH",
"344 787 OFFCURVE",
"374 810 OFFCURVE",
"433 810 CURVE SMOOTH"
);
},
{
closed = 1;
nodes = (
"916 811 OFFCURVE",
"948 787 OFFCURVE",
"948 740 CURVE SMOOTH",
"948 693 OFFCURVE",
"916 669 OFFCURVE",
"853 669 CURVE SMOOTH",
"799 669 OFFCURVE",
"748 693 OFFCURVE",
"701 740 CURVE",
"752 787 OFFCURVE",
"802 811 OFFCURVE",
"853 811 CURVE SMOOTH"
);
}
);
width = 1300;
}
);
unicode = 221E;
},
{
glyphname = integral;
lastChange = "2012-12-22 11:46:55 +0000";
layers = (
{
layerId = "7DA9E391-A28A-4B33-B824-B8724EAC872C";
name = "Regular Condensed";
paths = (
{
closed = 1;
nodes = (
"369 1786 OFFCURVE",
"306 1703 OFFCURVE",
"306 1539 CURVE SMOOTH",
"306 305 LINE SMOOTH",
"306 169 OFFCURVE",
"289 137 OFFCURVE",
"169 137 CURVE SMOOTH",
"153 137 OFFCURVE",
"135 138 OFFCURVE",
"115 139 CURVE",
"115 8 LINE",
"170 -6 OFFCURVE",
"217 -13 OFFCURVE",
"258 -13 CURVE SMOOTH",
"398 -13 OFFCURVE",
"462 67 OFFCURVE",
"462 221 CURVE SMOOTH",
"462 1515 LINE SMOOTH",
"462 1604 OFFCURVE",
"483 1643 OFFCURVE",
"544 1643 CURVE SMOOTH",
"571 1643 OFFCURVE",
"607 1635 OFFCURVE",
"652 1621 CURVE",
"652 1752 LINE",
"591 1775 OFFCURVE",
"537 1786 OFFCURVE",
"492 1786 CURVE SMOOTH"
);
}
);
width = 767;
}
);
unicode = 222B;
},
{
glyphname = less;
lastChange = "2012-12-22 11:46:55 +0000";
layers = (
{
layerId = "7DA9E391-A28A-4B33-B824-B8724EAC872C";
name = "Regular Condensed";
paths = (
{
closed = 1;
nodes = (
"63 835 LINE",
"63 675 LINE",
"641 280 LINE",
"641 458 LINE",
"185 757 LINE",
"641 1041 LINE",
"641 1226 LINE"
);
}
);
width = 730;
}
);
unicode = 003C;
},
{
glyphname = lessequal;
lastChange = "2012-12-22 11:46:55 +0000";
layers = (
{
layerId = "7DA9E391-A28A-4B33-B824-B8724EAC872C";
name = "Regular Condensed";
paths = (
{
closed = 1;
nodes = (
"63 835 LINE",
"63 675 LINE",
"641 280 LINE",
"641 458 LINE",
"185 757 LINE",
"641 1041 LINE",
"641 1226 LINE"
);
},
{
closed = 1;
nodes = (
"96 122 LINE",
"96 0 LINE",
"642 0 LINE",
"642 122 LINE"
);
}
);
width = 781;
}
);
unicode = 2264;
},
{
glyphname = logicalnot;
lastChange = "2012-12-22 11:46:55 +0000";
layers = (
{
layerId = "7DA9E391-A28A-4B33-B824-B8724EAC872C";
name = "Regular Condensed";
paths = (
{
closed = 1;
nodes = (
"97 979 LINE",
"97 743 LINE",
"602 743 LINE",
"602 439 LINE",
"826 439 LINE",
"826 979 LINE"
);
}
);
width = 947;
}
);
unicode = 00AC;
},
{
glyphname = minus;
lastChange = "2012-12-22 11:46:55 +0000";
layers = (
{
layerId = "7DA9E391-A28A-4B33-B824-B8724EAC872C";
name = "Regular Condensed";
paths = (
{
closed = 1;
nodes = (
"60 741 LINE",
"60 509 LINE",
"576 509 LINE",
"576 741 LINE"
);
}
);
width = 637;
}
);
unicode = 2212;
},
{
glyphname = multiply;
lastChange = "2012-12-22 11:46:55 +0000";
layers = (
{
layerId = "7DA9E391-A28A-4B33-B824-B8724EAC872C";
name = "Regular Condensed";
paths = (
{
closed = 1;
nodes = (
"355 789 LINE",
"208 936 LINE",
"44 772 LINE",
"191 625 LINE",
"44 478 LINE",
"208 314 LINE",
"355 461 LINE",
"502 314 LINE",
"666 478 LINE",
"519 625 LINE",
"666 772 LINE",
"502 936 LINE"
);
}
);
width = 710;
}
);
unicode = 00D7;
},
{
glyphname = notequal;
lastChange = "2012-12-22 11:47:01 +0000";
layers = (
{
layerId = "7DA9E391-A28A-4B33-B824-B8724EAC872C";
name = "Regular Condensed";
paths = (
{
closed = 1;
nodes = (
"454 1765 LINE",
"345 1166 LINE",
"103 1166 LINE",
"103 942 LINE",
"305 942 LINE",
"277 791 LINE",
"103 791 LINE",
"103 559 LINE",
"235 559 LINE",
"134 0 LINE",
"432 0 LINE",
"537 559 LINE",
"782 559 LINE",
"782 791 LINE",
"580 791 LINE",
"609 942 LINE",
"782 942 LINE",
"782 1166 LINE",
"651 1166 LINE",
"763 1765 LINE"
);
}
);
width = 884;
}
);
unicode = 2260;
},
{
glyphname = partialdiff;
lastChange = "2012-12-22 11:46:55 +0000";
layers = (
{
layerId = "7DA9E391-A28A-4B33-B824-B8724EAC872C";
name = "Regular Condensed";
paths = (
{
closed = 1;
nodes = (
"513 1681 OFFCURVE",
"383 1656 OFFCURVE",
"229 1607 CURVE",
"283 1376 LINE",
"334 1396 OFFCURVE",
"432 1415 OFFCURVE",
"507 1415 CURVE SMOOTH",
"626 1415 OFFCURVE",
"665 1306 OFFCURVE",
"665 1164 CURVE SMOOTH",
"665 1132 OFFCURVE",
"661 1093 OFFCURVE",
"654 1047 CURVE",
"577 1073 OFFCURVE",
"508 1086 OFFCURVE",
"445 1086 CURVE SMOOTH",
"123 1086 OFFCURVE",
"37 735 OFFCURVE",
"37 413 CURVE SMOOTH",
"37 127 OFFCURVE",
"158 -21 OFFCURVE",
"446 -21 CURVE SMOOTH",
"669 -21 OFFCURVE",
"811 54 OFFCURVE",
"890 196 CURVE SMOOTH",
"977 354 OFFCURVE",
"1030 1074 OFFCURVE",
"1030 1159 CURVE SMOOTH",
"1030 1479 OFFCURVE",
"928 1681 OFFCURVE",
"619 1681 CURVE SMOOTH"
);
},
{
closed = 1;
nodes = (
"560 794 OFFCURVE",
"589 782 OFFCURVE",
"622 759 CURVE",
"591 419 LINE SMOOTH",
"585 349 OFFCURVE",
"556 293 OFFCURVE",
"490 293 CURVE SMOOTH",
"432 293 OFFCURVE",
"417 332 OFFCURVE",
"417 391 CURVE SMOOTH",
"417 411 OFFCURVE",
"419 439 OFFCURVE",
"423 475 CURVE SMOOTH",
"440 645 LINE SMOOTH",
"450 744 OFFCURVE",
"481 794 OFFCURVE",
"534 794 CURVE SMOOTH"
);
}
);
width = 1072;
}
);
unicode = 2202;
},
{
glyphname = percent;
lastChange = "2012-12-22 12:01:36 +0000";
layers = (
{
layerId = "7DA9E391-A28A-4B33-B824-B8724EAC872C";
name = "Regular Condensed";
paths = (
{
closed = 1;
nodes = (
"1368 1760 LINE",
"645 0 LINE",
"804 0 LINE",
"1518 1760 LINE"
);
},
{
closed = 1;
nodes = (
"239 1782 OFFCURVE",
"172 1686 OFFCURVE",
"172 1364 CURVE SMOOTH",
"172 1011 LINE SMOOTH",
"172 679 OFFCURVE",
"239 581 OFFCURVE",
"465 581 CURVE SMOOTH",
"691 581 OFFCURVE",
"758 679 OFFCURVE",
"758 1011 CURVE SMOOTH",
"758 1364 LINE SMOOTH",
"758 1686 OFFCURVE",
"691 1782 OFFCURVE",
"465 1782 CURVE SMOOTH"
);
},
{
closed = 1;
nodes = (
"568 1638 OFFCURVE",
"598 1592 OFFCURVE",
"598 1435 CURVE SMOOTH",
"598 936 LINE SMOOTH",
"598 774 OFFCURVE",
"568 726 OFFCURVE",
"465 726 CURVE SMOOTH",
"362 726 OFFCURVE",
"332 774 OFFCURVE",
"332 936 CURVE SMOOTH",
"332 1435 LINE SMOOTH",
"332 1592 OFFCURVE",
"362 1638 OFFCURVE",
"465 1638 CURVE SMOOTH"
);
},
{
closed = 1;
nodes = (
"1467 1181 OFFCURVE",
"1400 1085 OFFCURVE",
"1400 763 CURVE SMOOTH",
"1400 410 LINE SMOOTH",
"1400 78 OFFCURVE",
"1467 -20 OFFCURVE",
"1693 -20 CURVE SMOOTH",
"1919 -20 OFFCURVE",
"1986 78 OFFCURVE",
"1986 410 CURVE SMOOTH",
"1986 763 LINE SMOOTH",
"1986 1085 OFFCURVE",
"1919 1181 OFFCURVE",
"1693 1181 CURVE SMOOTH"
);
},
{
closed = 1;
nodes = (
"1796 1037 OFFCURVE",
"1826 991 OFFCURVE",
"1826 834 CURVE SMOOTH",
"1826 335 LINE SMOOTH",
"1826 173 OFFCURVE",
"1796 125 OFFCURVE",
"1693 125 CURVE SMOOTH",
"1590 125 OFFCURVE",
"1560 173 OFFCURVE",
"1560 335 CURVE SMOOTH",
"1560 834 LINE SMOOTH",
"1560 991 OFFCURVE",
"1590 1037 OFFCURVE",
"1693 1037 CURVE SMOOTH"
);
}
);
width = 2158;
}
);
unicode = 0025;
},
{
glyphname = perthousand;
lastChange = "2012-12-22 12:02:15 +0000";
layers = (
{
layerId = "7DA9E391-A28A-4B33-B824-B8724EAC872C";
name = "Regular Condensed";
paths = (
{
closed = 1;
nodes = (
"1368 1760 LINE",
"645 0 LINE",
"804 0 LINE",
"1518 1760 LINE"
);
},
{
closed = 1;
nodes = (
"239 1782 OFFCURVE",
"172 1686 OFFCURVE",
"172 1364 CURVE SMOOTH",
"172 1011 LINE",
"172 679 OFFCURVE",
"239 581 OFFCURVE",
"465 581 CURVE SMOOTH",
"691 581 OFFCURVE",
"758 679 OFFCURVE",
"758 1011 CURVE SMOOTH",
"758 1364 LINE",
"758 1686 OFFCURVE",
"691 1782 OFFCURVE",
"465 1782 CURVE SMOOTH"
);
},
{
closed = 1;
nodes = (
"568 1638 OFFCURVE",
"598 1592 OFFCURVE",
"598 1435 CURVE SMOOTH",
"598 936 LINE",
"598 774 OFFCURVE",
"568 726 OFFCURVE",
"465 726 CURVE SMOOTH",
"362 726 OFFCURVE",
"332 774 OFFCURVE",
"332 936 CURVE SMOOTH",
"332 1435 LINE",
"332 1592 OFFCURVE",
"362 1638 OFFCURVE",
"465 1638 CURVE SMOOTH"
);
},
{
closed = 1;
nodes = (
"2310 1181 OFFCURVE",
"2243 1085 OFFCURVE",
"2243 763 CURVE SMOOTH",
"2243 410 LINE",
"2243 78 OFFCURVE",
"2310 -20 OFFCURVE",
"2536 -20 CURVE SMOOTH",
"2762 -20 OFFCURVE",
"2829 78 OFFCURVE",
"2829 410 CURVE SMOOTH",
"2829 763 LINE",
"2829 1085 OFFCURVE",
"2762 1181 OFFCURVE",
"2536 1181 CURVE SMOOTH"
);
},
{
closed = 1;
nodes = (
"2639 1037 OFFCURVE",
"2669 991 OFFCURVE",
"2669 834 CURVE SMOOTH",
"2669 335 LINE",
"2669 173 OFFCURVE",
"2639 125 OFFCURVE",
"2536 125 CURVE SMOOTH",
"2433 125 OFFCURVE",
"2403 173 OFFCURVE",
"2403 335 CURVE SMOOTH",
"2403 834 LINE",
"2403 991 OFFCURVE",
"2433 1037 OFFCURVE",
"2536 1037 CURVE SMOOTH"
);
},
{
closed = 1;
nodes = (
"1489 1181 OFFCURVE",
"1422 1085 OFFCURVE",
"1422 763 CURVE SMOOTH",
"1422 410 LINE",
"1422 78 OFFCURVE",
"1489 -20 OFFCURVE",
"1715 -20 CURVE SMOOTH",
"1941 -20 OFFCURVE",
"2008 78 OFFCURVE",
"2008 410 CURVE SMOOTH",
"2008 763 LINE",
"2008 1085 OFFCURVE",
"1941 1181 OFFCURVE",
"1715 1181 CURVE SMOOTH"
);
},
{
closed = 1;
nodes = (
"1818 1037 OFFCURVE",
"1848 991 OFFCURVE",
"1848 834 CURVE SMOOTH",
"1848 335 LINE",
"1848 173 OFFCURVE",
"1818 125 OFFCURVE",
"1715 125 CURVE SMOOTH",
"1612 125 OFFCURVE",
"1582 173 OFFCURVE",
"1582 335 CURVE SMOOTH",
"1582 834 LINE",
"1582 991 OFFCURVE",
"1612 1037 OFFCURVE",
"1715 1037 CURVE SMOOTH"
);
}
);
width = 3206;
}
);
unicode = 2030;
},
{
glyphname = plus;
lastChange = "2012-12-22 12:08:21 +0000";
layers = (
{
layerId = "7DA9E391-A28A-4B33-B824-B8724EAC872C";
name = "Regular Condensed";
paths = (
{
closed = 1;
nodes = (
"337 1184 LINE",
"337 929 LINE",
"109 929 LINE",
"109 812 LINE",
"337 812 LINE",
"337 551 LINE",
"465 551 LINE",
"465 812 LINE",
"697 812 LINE",
"697 929 LINE",
"465 929 LINE",
"465 1184 LINE"
);
}
);
width = 808;
}
);
unicode = 002B;
},
{
glyphname = plusminus;
lastChange = "2012-12-22 12:09:28 +0000";
layers = (
{
layerId = "7DA9E391-A28A-4B33-B824-B8724EAC872C";
name = "Regular Condensed";
paths = (
{
closed = 1;
nodes = (
"170 364 LINE",
"170 235 LINE",
"686 235 LINE",
"686 364 LINE"
);
},
{
closed = 1;
nodes = (
"363 1174 LINE",
"363 919 LINE",
"135 919 LINE",
"135 802 LINE",
"363 802 LINE",
"363 541 LINE",
"491 541 LINE",
"491 802 LINE",
"723 802 LINE",
"723 919 LINE",
"491 919 LINE",
"491 1174 LINE"
);
}
);
width = 854;
}
);
unicode = 00B1;
},
{
glyphname = radical;
lastChange = "2012-12-22 11:47:06 +0000";
layers = (
{
layerId = "7DA9E391-A28A-4B33-B824-B8724EAC872C";
name = "Regular Condensed";
paths = (
{
closed = 1;
nodes = (
"609 1500 LINE",
"472 338 LINE",
"358 741 LINE",
"89 741 LINE",
"308 0 LINE",
"682 0 LINE",
"878 1269 LINE",
"1442 1269 LINE",
"1442 1500 LINE"
);
}
);
width = 1537;
}
);
unicode = 221A;
},
{
glyphname = summation;
lastChange = "2012-12-22 11:46:55 +0000";
layers = (
{
layerId = "7DA9E391-A28A-4B33-B824-B8724EAC872C";
name = "Regular Condensed";
paths = (
{
closed = 1;
nodes = (
"102 1761 LINE",
"102 1505 LINE",
"317 881 LINE",
"102 271 LINE",
"102 0 LINE",
"719 0 LINE",
"719 275 LINE",
"466 275 LINE",
"674 880 LINE",
"466 1501 LINE",
"719 1501 LINE",
"719 1761 LINE"
);
}
);
width = 814;
}
);
unicode = 2211;
},
{
glyphname = ampersand;
lastChange = "2012-12-22 11:46:55 +0000";
layers = (
{
layerId = "7DA9E391-A28A-4B33-B824-B8724EAC872C";
name = "Regular Condensed";
paths = (
{
closed = 1;
nodes = (
"283 1782 OFFCURVE",
"181 1668 OFFCURVE",
"181 1441 CURVE SMOOTH",
"181 1190 OFFCURVE",
"685 256 OFFCURVE",
"791 0 CURVE",
"935 0 LINE",
"779 358 OFFCURVE",
"343 1200 OFFCURVE",
"343 1441 CURVE SMOOTH",
"343 1515 OFFCURVE",
"332 1653 OFFCURVE",
"479 1653 CURVE SMOOTH",
"588 1653 OFFCURVE",
"605 1584 OFFCURVE",
"605 1450 CURVE SMOOTH",
"605 1016 OFFCURVE",
"62 875 OFFCURVE",
"62 357 CURVE SMOOTH",
"62 100 OFFCURVE",
"192 -20 OFFCURVE",
"369 -20 CURVE SMOOTH",
"736 -20 OFFCURVE",
"698 385 OFFCURVE",
"946 690 CURVE",
"871 809 LINE",
"603 491 OFFCURVE",
"593 122 OFFCURVE",
"391 122 CURVE SMOOTH",
"258 122 OFFCURVE",
"217 229 OFFCURVE",
"227 379 CURVE SMOOTH",
"254 804 OFFCURVE",
"752 1025 OFFCURVE",
"752 1434 CURVE SMOOTH",
"752 1654 OFFCURVE",
"699 1782 OFFCURVE",
"473 1782 CURVE SMOOTH"
);
}
);
width = 937;
}
);
unicode = 0026;
},
{
glyphname = asciicircum;
lastChange = "2012-12-22 11:46:55 +0000";
layers = (
{
layerId = "7DA9E391-A28A-4B33-B824-B8724EAC872C";
name = "Regular Condensed";
paths = (
{
closed = 1;
nodes = (
"402 1500 LINE",
"161 577 LINE",
"329 577 LINE",
"515 1372 LINE",
"701 577 LINE",
"867 577 LINE",
"626 1500 LINE"
);
}
);
width = 1030;
}
);
unicode = 005E;
},
{
glyphname = at;
lastChange = "2012-12-22 11:46:55 +0000";
layers = (
{
layerId = "7DA9E391-A28A-4B33-B824-B8724EAC872C";
name = "Regular Condensed";
paths = (
{
closed = 1;
nodes = (
"254 1781 OFFCURVE",
"92 1390 OFFCURVE",
"92 836 CURVE SMOOTH",
"92 249 OFFCURVE",
"284 -54 OFFCURVE",
"662 -54 CURVE SMOOTH",
"731 -54 OFFCURVE",
"789 -44 OFFCURVE",
"881 -25 CURVE",
"862 96 LINE",
"789 74 OFFCURVE",
"720 68 OFFCURVE",
"665 68 CURVE SMOOTH",
"375 68 OFFCURVE",
"229 269 OFFCURVE",
"229 833 CURVE SMOOTH",
"229 1315 OFFCURVE",
"345 1653 OFFCURVE",
"720 1653 CURVE SMOOTH",
"1100 1653 OFFCURVE",
"1139 1286 OFFCURVE",
"1139 942 CURVE SMOOTH",
"1139 634 OFFCURVE",
"1115 502 OFFCURVE",
"1045 502 CURVE SMOOTH",
"990 502 OFFCURVE",
"973 571 OFFCURVE",
"973 697 CURVE SMOOTH",
"973 1262 LINE",
"892 1262 LINE",
"862 1140 LINE",
"823 1199 OFFCURVE",
"755 1283 OFFCURVE",
"639 1283 CURVE SMOOTH",
"473 1283 OFFCURVE",
"386 1091 OFFCURVE",
"386 808 CURVE SMOOTH",
"386 471 OFFCURVE",
"532 361 OFFCURVE",
"675 361 CURVE SMOOTH",
"773 361 OFFCURVE",
"857 454 OFFCURVE",
"881 587 CURVE",
"898 491 OFFCURVE",
"962 378 OFFCURVE",
"1042 378 CURVE SMOOTH",
"1203 378 OFFCURVE",
"1266 612 OFFCURVE",
"1266 910 CURVE SMOOTH",
"1266 1428 OFFCURVE",
"1119 1781 OFFCURVE",
"733 1781 CURVE SMOOTH"
);
},
{
closed = 1;
nodes = (
"854 759 LINE SMOOTH",
"854 597 OFFCURVE",
"777 485 OFFCURVE",
"680 485 CURVE SMOOTH",
"572 485 OFFCURVE",
"504 563 OFFCURVE",
"504 814 CURVE SMOOTH",
"504 1175 OFFCURVE",
"629 1231 OFFCURVE",
"854 1062 CURVE"
);
}
);
width = 1352;
}
);
unicode = 0040;
},
{
glyphname = bar;
lastChange = "2012-12-22 12:06:41 +0000";
layers = (
{
layerId = "7DA9E391-A28A-4B33-B824-B8724EAC872C";
name = "Regular Condensed";
paths = (
{
closed = 1;
nodes = (
"191 1683 LINE",
"191 -84 LINE",
"359 -84 LINE",
"359 1683 LINE"
);
}
);
width = 537;
}
);
unicode = 007C;
},
{
glyphname = brokenbar;
lastChange = "2012-12-22 11:46:55 +0000";
layers = (
{
layerId = "7DA9E391-A28A-4B33-B824-B8724EAC872C";
name = "Regular Condensed";
paths = (
{
closed = 1;
nodes = (
"122 1761 LINE",
"122 931 LINE",
"408 931 LINE",
"408 1761 LINE"
);
},
{
closed = 1;
nodes = (
"122 724 LINE",
"122 -84 LINE",
"408 -84 LINE",
"408 724 LINE"
);
}
);
width = 530;
}
);
unicode = 00A6;
},
{
glyphname = copyright;
lastChange = "2012-12-22 11:46:55 +0000";
layers = (
{
layerId = "7DA9E391-A28A-4B33-B824-B8724EAC872C";
name = "Regular Condensed";
paths = (
{
closed = 1;
nodes = (
"360 1519 OFFCURVE",
"76 1235 OFFCURVE",
"76 862 CURVE SMOOTH",
"76 489 OFFCURVE",
"360 205 OFFCURVE",
"733 205 CURVE SMOOTH",
"1106 205 OFFCURVE",
"1390 489 OFFCURVE",
"1390 862 CURVE SMOOTH",
"1390 1235 OFFCURVE",
"1106 1519 OFFCURVE",
"733 1519 CURVE SMOOTH"
);
},
{
closed = 1;
nodes = (
"571 1305 OFFCURVE",
"497 1217 OFFCURVE",
"497 1049 CURVE SMOOTH",
"497 648 LINE SMOOTH",
"497 507 OFFCURVE",
"593 424 OFFCURVE",
"732 424 CURVE SMOOTH",
"894 424 OFFCURVE",
"951 497 OFFCURVE",
"951 643 CURVE SMOOTH",
"951 806 LINE",
"782 806 LINE",
"782 657 LINE SMOOTH",
"782 614 OFFCURVE",
"767 592 OFFCURVE",
"736 592 CURVE SMOOTH",
"708 592 OFFCURVE",
"692 627 OFFCURVE",
"692 657 CURVE SMOOTH",
"692 1066 LINE SMOOTH",
"692 1104 OFFCURVE",
"699 1130 OFFCURVE",
"736 1130 CURVE SMOOTH",
"767 1130 OFFCURVE",
"782 1104 OFFCURVE",
"782 1053 CURVE SMOOTH",
"782 952 LINE",
"947 952 LINE",
"947 1105 LINE SMOOTH",
"947 1239 OFFCURVE",
"870 1305 OFFCURVE",
"736 1305 CURVE SMOOTH"
);
},
{
closed = 1;
nodes = (
"1022 1390 OFFCURVE",
"1231 1153 OFFCURVE",
"1231 862 CURVE SMOOTH",
"1231 571 OFFCURVE",
"1022 334 OFFCURVE",
"733 334 CURVE SMOOTH",
"444 334 OFFCURVE",
"235 571 OFFCURVE",
"235 862 CURVE SMOOTH",
"235 1153 OFFCURVE",
"444 1390 OFFCURVE",
"733 1390 CURVE SMOOTH"
);
}
);
width = 1466;
}
);
unicode = 00A9;
},
{
glyphname = dagger;
lastChange = "2012-12-22 12:10:18 +0000";
layers = (
{
layerId = "7DA9E391-A28A-4B33-B824-B8724EAC872C";
name = "Regular Condensed";
paths = (
{
closed = 1;
nodes = (
"372 1592 LINE",
"372 1182 LINE",
"91 1182 LINE",
"91 1050 LINE",
"372 1050 LINE",
"372 0 LINE",
"540 0 LINE",
"540 1050 LINE",
"818 1050 LINE",
"818 1182 LINE",
"540 1182 LINE",
"540 1592 LINE"
);
}
);
width = 909;
}
);
unicode = 2020;
},
{
glyphname = daggerdbl;
lastChange = "2012-12-22 11:46:55 +0000";
layers = (
{
layerId = "7DA9E391-A28A-4B33-B824-B8724EAC872C";
name = "Regular Condensed";
paths = (
{
closed = 1;
nodes = (
"283 1592 LINE",
"283 1236 LINE",
"100 1236 LINE",
"100 940 LINE",
"283 940 LINE",
"283 646 LINE",
"100 646 LINE",
"100 350 LINE",
"283 350 LINE",
"283 0 LINE",
"647 0 LINE",
"647 350 LINE",
"827 350 LINE",
"827 646 LINE",
"647 646 LINE",
"647 940 LINE",
"827 940 LINE",
"827 1236 LINE",
"647 1236 LINE",
"647 1592 LINE"
);
}
);
width = 927;
}
);
unicode = 2021;
},
{
glyphname = degree;
lastChange = "2012-12-22 11:46:55 +0000";
layers = (
{
layerId = "7DA9E391-A28A-4B33-B824-B8724EAC872C";
name = "Regular Condensed";
paths = (
{
closed = 1;
nodes = (
"243 1607 OFFCURVE",
"104 1480 OFFCURVE",
"104 1269 CURVE SMOOTH",
"104 1057 OFFCURVE",
"243 931 OFFCURVE",
"457 931 CURVE SMOOTH",
"671 931 OFFCURVE",
"811 1058 OFFCURVE",
"811 1269 CURVE SMOOTH",
"811 1480 OFFCURVE",
"671 1607 OFFCURVE",
"457 1607 CURVE SMOOTH"
);
},
{
closed = 1;
nodes = (
"547 1426 OFFCURVE",
"600 1356 OFFCURVE",
"600 1269 CURVE SMOOTH",
"600 1182 OFFCURVE",
"547 1112 OFFCURVE",
"458 1112 CURVE SMOOTH",
"369 1112 OFFCURVE",
"316 1182 OFFCURVE",
"316 1269 CURVE SMOOTH",
"316 1356 OFFCURVE",
"369 1426 OFFCURVE",
"458 1426 CURVE SMOOTH"
);
}
);
width = 915;
}
);
unicode = 00B0;
},
{
glyphname = paragraph;
lastChange = "2012-12-22 12:03:53 +0000";
layers = (
{
layerId = "7DA9E391-A28A-4B33-B824-B8724EAC872C";
name = "Regular Condensed";
paths = (
{
closed = 1;
nodes = (
"662 1761 LINE SMOOTH",
"268 1761 OFFCURVE",
"151 1694 OFFCURVE",
"151 1468 CURVE SMOOTH",
"151 1292 OFFCURVE",
"260 1188 OFFCURVE",
"468 1165 CURVE",
"468 0 LINE",
"636 0 LINE",
"636 1605 LINE",
"779 1605 LINE",
"779 0 LINE",
"947 0 LINE",
"947 1761 LINE"
);
}
);
width = 1119;
}
);
unicode = 00B6;
},
{
glyphname = registered;
lastChange = "2012-12-22 11:46:55 +0000";
layers = (
{
layerId = "7DA9E391-A28A-4B33-B824-B8724EAC872C";
name = "Regular Condensed";
paths = (
{
closed = 1;
nodes = (
"378 1519 OFFCURVE",
"94 1235 OFFCURVE",
"94 862 CURVE SMOOTH",
"94 489 OFFCURVE",
"378 205 OFFCURVE",
"751 205 CURVE SMOOTH",
"1124 205 OFFCURVE",
"1408 489 OFFCURVE",
"1408 862 CURVE SMOOTH",
"1408 1235 OFFCURVE",
"1124 1519 OFFCURVE",
"751 1519 CURVE SMOOTH"
);
},
{
closed = 1;
nodes = (
"1040 1390 OFFCURVE",
"1249 1153 OFFCURVE",
"1249 862 CURVE SMOOTH",
"1249 571 OFFCURVE",
"1040 334 OFFCURVE",
"751 334 CURVE SMOOTH",
"462 334 OFFCURVE",
"253 571 OFFCURVE",
"253 862 CURVE SMOOTH",
"253 1153 OFFCURVE",
"462 1390 OFFCURVE",
"751 1390 CURVE SMOOTH"
);
},
{
closed = 1;
nodes = (
"529 1282 LINE",
"529 430 LINE",
"719 430 LINE",
"719 818 LINE",
"769 818 OFFCURVE",
"791 812 OFFCURVE",
"791 762 CURVE SMOOTH",
"791 430 LINE",
"975 430 LINE",
"975 751 LINE SMOOTH",
"975 822 OFFCURVE",
"949 863 OFFCURVE",
"896 873 CURVE",
"968 896 OFFCURVE",
"989 951 OFFCURVE",
"989 1043 CURVE SMOOTH",
"989 1187 OFFCURVE",
"963 1282 OFFCURVE",
"818 1282 CURVE SMOOTH"
);
},
{
closed = 1;
nodes = (
"790 1124 OFFCURVE",
"805 1114 OFFCURVE",
"805 1043 CURVE SMOOTH",
"805 991 OFFCURVE",
"793 965 OFFCURVE",
"768 965 CURVE SMOOTH",
"720 965 LINE",
"720 1124 LINE"
);
}
);
width = 1502;
}
);
unicode = 00AE;
},
{
glyphname = section;
lastChange = "2012-12-22 11:47:01 +0000";
layers = (
{
layerId = "7DA9E391-A28A-4B33-B824-B8724EAC872C";
name = "Regular Condensed";
paths = (
{
closed = 1;
nodes = (
"292 1781 OFFCURVE",
"125 1662 OFFCURVE",
"125 1433 CURVE SMOOTH",
"125 1328 OFFCURVE",
"166 1218 OFFCURVE",
"248 1143 CURVE",
"166 1067 OFFCURVE",
"125 960 OFFCURVE",
"125 862 CURVE SMOOTH",
"125 697 OFFCURVE",
"238 612 OFFCURVE",
"336 542 CURVE SMOOTH",
"454 457 OFFCURVE",
"566 388 OFFCURVE",
"566 303 CURVE SMOOTH",
"566 240 OFFCURVE",
"543 220 OFFCURVE",
"497 220 CURVE SMOOTH",
"445 220 OFFCURVE",
"406 244 OFFCURVE",
"406 391 CURVE",
"107 391 LINE",
"107 90 OFFCURVE",
"243 -20 OFFCURVE",
"488 -20 CURVE SMOOTH",
"714 -20 OFFCURVE",
"855 91 OFFCURVE",
"855 293 CURVE SMOOTH",
"855 430 OFFCURVE",
"794 511 OFFCURVE",
"700 598 CURVE",
"782 674 OFFCURVE",
"852 781 OFFCURVE",
"852 879 CURVE SMOOTH",
"852 1044 OFFCURVE",
"742 1156 OFFCURVE",
"640 1221 CURVE SMOOTH",
"594 1252 OFFCURVE",
"412 1368 OFFCURVE",
"412 1451 CURVE SMOOTH",
"412 1509 OFFCURVE",
"435 1542 OFFCURVE",
"497 1542 CURVE SMOOTH",
"560 1542 OFFCURVE",
"580 1502 OFFCURVE",
"580 1372 CURVE",
"853 1372 LINE",
"853 1667 OFFCURVE",
"725 1781 OFFCURVE",
"487 1781 CURVE SMOOTH"
);
},
{
closed = 1;
nodes = (
"546 967 OFFCURVE",
"586 906 OFFCURVE",
"586 856 CURVE SMOOTH",
"586 822 OFFCURVE",
"565 775 OFFCURVE",
"541 735 CURVE",
"467 764 OFFCURVE",
"381 822 OFFCURVE",
"381 902 CURVE SMOOTH",
"381 935 OFFCURVE",
"396 974 OFFCURVE",
"426 1017 CURVE"
);
}
);
width = 950;
}
);
unicode = 00A7;
},
{
glyphname = Euro;
lastChange = "2012-12-22 11:46:55 +0000";
layers = (
{
layerId = "7DA9E391-A28A-4B33-B824-B8724EAC872C";
name = "Regular Condensed";
paths = (
{
closed = 1;
nodes = (
"242 1781 OFFCURVE",
"114 1595 OFFCURVE",
"114 1254 CURVE SMOOTH",
"114 1106 LINE",
"23 1106 LINE",
"23 966 LINE",
"114 966 LINE",
"114 869 LINE",
"23 869 LINE",
"23 721 LINE",
"114 721 LINE",
"114 436 LINE SMOOTH",
"114 151 OFFCURVE",
"284 -21 OFFCURVE",
"539 -21 CURVE SMOOTH",
"819 -21 OFFCURVE",
"987 116 OFFCURVE",
"987 425 CURVE SMOOTH",
"987 548 LINE",
"631 548 LINE",
"631 420 LINE SMOOTH",
"631 341 OFFCURVE",
"604 294 OFFCURVE",
"544 294 CURVE SMOOTH",
"490 294 OFFCURVE",
"474 339 OFFCURVE",
"474 414 CURVE SMOOTH",
"474 721 LINE",
"838 721 LINE",
"838 869 LINE",
"474 869 LINE",
"474 966 LINE",
"838 966 LINE",
"838 1106 LINE",
"474 1106 LINE",
"474 1326 LINE SMOOTH",
"474 1404 OFFCURVE",
"482 1466 OFFCURVE",
"551 1466 CURVE SMOOTH",
"607 1466 OFFCURVE",
"631 1429 OFFCURVE",
"631 1324 CURVE SMOOTH",
"631 1231 LINE",
"979 1231 LINE",
"979 1368 LINE SMOOTH",
"979 1645 OFFCURVE",
"797 1781 OFFCURVE",
"547 1781 CURVE SMOOTH"
);
}
);
width = 1076;
}
);
unicode = 20AC;
},
{
glyphname = uni2215;
lastChange = "2012-12-22 11:55:29 +0000";
layers = (
{
layerId = "7DA9E391-A28A-4B33-B824-B8724EAC872C";
name = "Regular Condensed";
paths = (
{
closed = 1;
nodes = (
"534 1768 LINE",
"88 0 LINE",
"238 0 LINE",
"685 1768 LINE"
);
}
);
width = 829;
}
);
unicode = 2215;
},
{
glyphname = trademark;
lastChange = "2012-12-22 11:46:55 +0000";
layers = (
{
layerId = "7DA9E391-A28A-4B33-B824-B8724EAC872C";
name = "Regular Condensed";
paths = (
{
closed = 1;
nodes = (
"1164 1761 LINE",
"984 614 LINE",
"798 1761 LINE",
"641 1761 LINE",
"641 457 LINE",
"752 457 LINE",
"752 1004 LINE",
"736 1516 LINE",
"921 457 LINE",
"1047 457 LINE",
"1225 1516 LINE",
"1210 1004 LINE",
"1210 457 LINE",
"1320 457 LINE",
"1320 1761 LINE"
);
},
{
closed = 1;
nodes = (
"116 1761 LINE",
"116 1661 LINE",
"255 1661 LINE",
"255 457 LINE",
"379 457 LINE",
"379 1661 LINE",
"505 1661 LINE",
"505 1761 LINE"
);
}
);
width = 1450;
}
);
unicode = 2122;
},
{
glyphname = lozenge;
lastChange = "2012-12-22 11:46:55 +0000";
layers = (
{
layerId = "7DA9E391-A28A-4B33-B824-B8724EAC872C";
name = "Regular Condensed";
paths = (
{
closed = 1;
nodes = (
"277 1436 LINE",
"34 713 LINE",
"277 0 LINE",
"648 0 LINE",
"887 713 LINE",
"648 1436 LINE"
);
},
{
closed = 1;
nodes = (
"609 713 LINE",
"475 179 LINE",
"443 179 LINE",
"309 713 LINE",
"443 1247 LINE",
"475 1247 LINE"
);
}
);
width = 921;
}
);
unicode = 25CA;
},
{
glyphname = uni0307;
lastChange = "2012-12-22 11:46:55 +0000";
layers = (
{
anchors = (
{
name = _top;
position = "{286, 0}";
}
);
layerId = "7DA9E391-A28A-4B33-B824-B8724EAC872C";
name = "Regular Condensed";
paths = (
{
closed = 1;
nodes = (
"107 445 LINE",
"107 147 LINE",
"465 147 LINE",
"465 445 LINE"
);
}
);
width = 572;
}
);
unicode = 0307;
},
{
glyphname = uni030F;
lastChange = "2012-12-22 11:46:55 +0000";
layers = (
{
anchors = (
{
name = _top;
position = "{412, 1500}";
}
);
layerId = "7DA9E391-A28A-4B33-B824-B8724EAC872C";
name = "Regular Condensed";
paths = (
{
closed = 1;
nodes = (
"8 1927 LINE",
"267 1638 LINE",
"343 1686 LINE",
"152 2025 LINE"
);
},
{
closed = 1;
nodes = (
"321 1927 LINE",
"539 1638 LINE",
"615 1686 LINE",
"461 2025 LINE"
);
}
);
width = 825;
}
);
unicode = 030F;
},
{
glyphname = uni0311;
lastChange = "2012-12-22 11:46:55 +0000";
layers = (
{
anchors = (
{
name = _top;
position = "{508, 1500}";
}
);
layerId = "7DA9E391-A28A-4B33-B824-B8724EAC872C";
name = "Regular Condensed";
paths = (
{
closed = 1;
nodes = (
"360 1822 OFFCURVE",
"296 1740 OFFCURVE",
"299 1617 CURVE SMOOTH",
"299 1604 LINE",
"377 1606 LINE",
"375 1704 OFFCURVE",
"441 1724 OFFCURVE",
"500 1725 CURVE SMOOTH",
"563 1727 OFFCURVE",
"630 1707 OFFCURVE",
"632 1613 CURVE",
"710 1615 LINE",
"710 1630 LINE",
"707 1755 OFFCURVE",
"634 1829 OFFCURVE",
"500 1825 CURVE SMOOTH"
);
}
);
width = 1016;
}
);
unicode = 0311;
},
{
glyphname = uni0326;
lastChange = "2012-12-22 11:46:55 +0000";
layers = (
{
anchors = (
{
name = _bottom;
position = "{281, 354}";
}
);
layerId = "7DA9E391-A28A-4B33-B824-B8724EAC872C";
name = "Regular Condensed";
paths = (
{
closed = 1;
nodes = (
"160 204 LINE",
"160 0 LINE",
"263 0 LINE",
"218 -278 LINE",
"289 -278 LINE",
"370 9 LINE",
"370 204 LINE"
);
}
);
width = 528;
}
);
unicode = 0326;
},
{
glyphname = uni02C9;
lastChange = "2012-12-22 11:46:55 +0000";
layers = (
{
layerId = "7DA9E391-A28A-4B33-B824-B8724EAC872C";
name = "Regular Condensed";
paths = (
{
closed = 1;
nodes = (
"90 741 LINE",
"90 509 LINE",
"606 509 LINE",
"606 741 LINE"
);
}
);
width = 696;
}
);
unicode = 02C9;
},
{
glyphname = acute;
lastChange = "2012-12-22 11:46:55 +0000";
layers = (
{
anchors = (
{
name = _top;
position = "{279, 1760}";
}
);
layerId = "7DA9E391-A28A-4B33-B824-B8724EAC872C";
name = "Regular Condensed";
paths = (
{
closed = 1;
nodes = (
"100 1978 LINE",
"100 1895 LINE",
"505 1979 LINE",
"505 2141 LINE"
);
}
);
width = 650;
}
);
unicode = 00B4;
},
{
glyphname = breve;
lastChange = "2012-12-22 11:46:55 +0000";
layers = (
{
anchors = (
{
name = _top;
position = "{508, 1500}";
}
);
layerId = "7DA9E391-A28A-4B33-B824-B8724EAC872C";
name = "Regular Condensed";
paths = (
{
closed = 1;
nodes = (
"633 1834 LINE",
"633 1736 OFFCURVE",
"567 1718 OFFCURVE",
"507 1718 CURVE SMOOTH",
"444 1718 OFFCURVE",
"378 1740 OFFCURVE",
"378 1834 CURVE",
"300 1834 LINE",
"300 1819 LINE SMOOTH",
"300 1694 OFFCURVE",
"371 1618 OFFCURVE",
"505 1618 CURVE SMOOTH",
"645 1618 OFFCURVE",
"711 1698 OFFCURVE",
"711 1821 CURVE SMOOTH",
"711 1834 LINE"
);
}
);
width = 1016;
}
);
unicode = 02D8;
},
{
glyphname = caron;
lastChange = "2012-12-22 11:46:55 +0000";
layers = (
{
anchors = (
{
name = _top;
position = "{485, 1500}";
}
);
layerId = "7DA9E391-A28A-4B33-B824-B8724EAC872C";
name = "Regular Condensed";
paths = (
{
closed = 1;
nodes = (
"571 1849 LINE",
"485 1664 LINE",
"399 1849 LINE",
"259 1849 LINE",
"391 1582 LINE",
"579 1582 LINE",
"710 1849 LINE"
);
}
);
width = 970;
}
);
unicode = 02C7;
},
{
glyphname = cedilla;
lastChange = "2012-12-22 11:47:01 +0000";
layers = (
{
anchors = (
{
name = _bottom;
position = "{515, 0}";
}
);
layerId = "7DA9E391-A28A-4B33-B824-B8724EAC872C";
name = "Regular Condensed";
paths = (
{
closed = 1;
nodes = (
"483 0 LINE",
"443 -196 LINE",
"525 -214 OFFCURVE",
"603 -269 OFFCURVE",
"603 -359 CURVE SMOOTH",
"603 -434 OFFCURVE",
"561 -501 OFFCURVE",
"372 -501 CURVE",
"372 -591 LINE",
"406 -599 OFFCURVE",
"438 -603 OFFCURVE",
"469 -603 CURVE SMOOTH",
"630 -603 OFFCURVE",
"741 -497 OFFCURVE",
"741 -379 CURVE SMOOTH",
"741 -296 OFFCURVE",
"686 -208 OFFCURVE",
"554 -146 CURVE",
"544 0 LINE"
);
}
);
width = 1015;
}
);
unicode = 00B8;
},
{
glyphname = circumflex;
lastChange = "2012-12-22 11:46:55 +0000";
layers = (
{
anchors = (
{
name = _top;
position = "{485, 1500}";
}
);
layerId = "7DA9E391-A28A-4B33-B824-B8724EAC872C";
name = "Regular Condensed";
paths = (
{
closed = 1;
nodes = (
"391 1849 LINE",
"259 1582 LINE",
"399 1582 LINE",
"485 1767 LINE",
"571 1582 LINE",
"710 1582 LINE",
"579 1849 LINE"
);
}
);
width = 970;
}
);
unicode = 02C6;
},
{
glyphname = dieresis;
lastChange = "2012-12-22 11:46:55 +0000";
layers = (
{
anchors = (
{
name = _top;
position = "{488, 0}";
}
);
layerId = "7DA9E391-A28A-4B33-B824-B8724EAC872C";
name = "Regular Condensed";
paths = (
{
closed = 1;
nodes = (
"631 262 LINE",
"631 114 LINE",
"829 114 LINE",
"829 262 LINE"
);
},
{
closed = 1;
nodes = (
"147 262 LINE",
"147 114 LINE",
"345 114 LINE",
"345 262 LINE"
);
}
);
width = 976;
}
);
unicode = 00A8;
},
{
glyphname = dotaccent;
lastChange = "2012-12-22 11:46:55 +0000";
layers = (
{
anchors = (
{
name = _top;
position = "{286, 0}";
}
);
layerId = "7DA9E391-A28A-4B33-B824-B8724EAC872C";
name = "Regular Condensed";
paths = (
{
closed = 1;
nodes = (
"203 246 LINE",
"203 98 LINE",
"380 98 LINE",
"380 246 LINE"
);
}
);
width = 572;
}
);
unicode = 02D9;
},
{
glyphname = grave;
lastChange = "2012-12-22 11:46:55 +0000";
layers = (
{
anchors = (
{
name = _top;
position = "{300, 0}";
}
);
layerId = "7DA9E391-A28A-4B33-B824-B8724EAC872C";
name = "Regular Condensed";
paths = (
{
closed = 1;
nodes = (
"131 173 LINE",
"476 79 LINE",
"476 162 LINE",
"131 350 LINE"
);
}
);
width = 650;
}
);
unicode = 0060;
},
{
glyphname = hungarumlaut;
lastChange = "2012-12-22 11:46:55 +0000";
layers = (
{
anchors = (
{
name = _top;
position = "{661, 0}";
}
);
layerId = "7DA9E391-A28A-4B33-B824-B8724EAC872C";
name = "Regular Condensed";
paths = (
{
closed = 1;
nodes = (
"698 195 LINE",
"773 153 LINE",
"1043 503 LINE",
"869 594 LINE"
);
},
{
closed = 1;
nodes = (
"433 195 LINE",
"509 163 LINE",
"718 513 LINE",
"547 594 LINE"
);
}
);
width = 1300;
}
);
unicode = 02DD;
},
{
glyphname = macron;
lastChange = "2012-12-22 11:46:55 +0000";
layers = (
{
anchors = (
{
name = _center;
position = "{336, 154}";
},
{
name = _top;
position = "{348, 0}";
}
);
layerId = "7DA9E391-A28A-4B33-B824-B8724EAC872C";
name = "Regular Condensed";
paths = (
{
closed = 1;
nodes = (
"90 210 LINE",
"90 91 LINE",
"587 91 LINE",
"587 210 LINE"
);
}
);
width = 696;
}
);
unicode = 00AF;
},
{
glyphname = ogonek;
lastChange = "2012-12-22 11:46:55 +0000";
layers = (
{
anchors = (
{
name = _ogonek;
position = "{835, 1}";
}
);
layerId = "7DA9E391-A28A-4B33-B824-B8724EAC872C";
name = "Regular Condensed";
paths = (
{
closed = 1;
nodes = (
"660 0 LINE",
"483 -100 OFFCURVE",
"382 -268 OFFCURVE",
"382 -405 CURVE SMOOTH",
"382 -528 OFFCURVE",
"463 -626 OFFCURVE",
"643 -626 CURVE SMOOTH",
"711 -626 OFFCURVE",
"789 -604 OFFCURVE",
"812 -591 CURVE",
"812 -491 LINE",
"811 -492 OFFCURVE",
"746 -514 OFFCURVE",
"666 -514 CURVE SMOOTH",
"563 -514 OFFCURVE",
"518 -460 OFFCURVE",
"518 -382 CURVE SMOOTH",
"518 -276 OFFCURVE",
"601 -124 OFFCURVE",
"731 0 CURVE"
);
}
);
width = 1015;
}
);
unicode = 02DB;
},
{
glyphname = ring;
lastChange = "2012-12-22 11:47:01 +0000";
layers = (
{
anchors = (
{
name = _top;
position = "{462, 0}";
}
);
layerId = "7DA9E391-A28A-4B33-B824-B8724EAC872C";
name = "Regular Condensed";
paths = (
{
closed = 1;
nodes = (
"342 406 OFFCURVE",
"282 324 OFFCURVE",
"282 242 CURVE SMOOTH",
"282 160 OFFCURVE",
"342 78 OFFCURVE",
"461 78 CURVE SMOOTH",
"581 78 OFFCURVE",
"640 160 OFFCURVE",
"640 242 CURVE SMOOTH",
"640 324 OFFCURVE",
"581 406 OFFCURVE",
"461 406 CURVE SMOOTH"
);
},
{
closed = 1;
nodes = (
"530 349 OFFCURVE",
"564 296 OFFCURVE",
"564 243 CURVE SMOOTH",
"564 189 OFFCURVE",
"530 136 OFFCURVE",
"461 136 CURVE SMOOTH",
"395 136 OFFCURVE",
"361 189 OFFCURVE",
"361 243 CURVE SMOOTH",
"361 296 OFFCURVE",
"395 349 OFFCURVE",
"461 349 CURVE SMOOTH"
);
}
);
width = 923;
}
);
unicode = 02DA;
},
